Linefont[min,low].ufo
<glyph name="neg.-1" format="2">
	<advance width="50"/>
	<outline>
		<contour>
			<point x="-24.216" y="3.922" type="line"/>
			<point x="25.784" y="-6.078" type="line"/>
			<point x="24.216" y="-13.922" type="line"/>
			<point x="-25.784" y="-3.922" type="line"/>
		</contour>
	</outline>
</glyph>
<glyph name="neg.-10" format="2">
	<advance width="50"/>
	<outline>
		<contour>
			<point x="-24.553" y="0.224" type="line"/>
			<point x="25.447" y="-99.776" type="line"/>
			<point x="24.553" y="-100.224" type="line"/>
			<point x="-25.447" y="-0.224" type="line"/>
		</contour>
	</outline>
</glyph>
<glyph name="neg.-100" format="2">
	<advance width="50"/>
	<outline>
		<contour>
			<point x="-22.503" y="0.125" type="line"/>
			<point x="27.497" y="-999.875" type="line"/>
			<point x="22.503" y="-1000.125" type="line"/>
			<point x="-27.497" y="-0.125" type="line"/>
		</contour>
	</outline>
</glyph>
<glyph name="neg.-101" format="2">
	<advance width="50"/>
	<outline>
		<contour>
			<point x="-21.005" y="0.198" type="line"/>
			<point x="28.995" y="-1009.802" type="line"/>
			<point x="21.005" y="-1010.198" type="line"/>
			<point x="-28.995" y="-0.198" type="line"/>
		</contour>
	</outline>
</glyph>
<glyph name="neg.-103" format="2">
	<advance width="50"/>
	<outline>
		<contour>
			<point x="-24.501" y="0.024" type="line"/>
			<point x="25.499" y="-1029.976" type="line"/>
			<point x="24.501" y="-1030.024" type="line"/>
			<point x="-25.499" y="-0.024" type="line"/>
		</contour>
	</outline>
</glyph>
<glyph name="neg.-105" format="2">
	<advance width="50"/>
	<outline>
		<contour>
			<point x="-21.005" y="0.19" type="line"/>
			<point x="28.995" y="-1049.81" type="line"/>
			<point x="21.005" y="-1050.19" type="line"/>
			<point x="-28.995" y="-0.19" type="line"/>
		</contour>
	</outline>
</glyph>
<glyph name="neg.-107" format="2">
	<advance width="50"/>
	<outline>
		<contour>
			<point x="-24.501" y="0.023" type="line"/>
			<point x="25.499" y="-1069.977" type="line"/>
			<point x="24.501" y="-1070.023" type="line"/>
			<point x="-25.499" y="-0.023" type="line"/>
		</contour>
	</outline>
</glyph>
<glyph name="neg.-109" format="2">
	<advance width="50"/>
	<outline>
		<contour>
			<point x="-21.004" y="0.183" type="line"/>
			<point x="28.996" y="-1089.817" type="line"/>
			<point x="21.004" y="-1090.183" type="line"/>
			<point x="-28.996" y="-0.183" type="line"/>
		</contour>
	</outline>
</glyph>
<glyph name="neg.-112" format="2">
	<advance width="50"/>
	<outline>
		<contour>
			<point x="-22.502" y="0.111" type="line"/>
			<point x="27.498" y="-1119.889" type="line"/>
			<point x="22.502" y="-1120.111" type="line"/>
			<point x="-27.498" y="-0.111" type="line"/>
		</contour>
	</outline>
</glyph>
<glyph name="neg.-113" format="2">
	<advance width="50"/>
	<outline>
		<contour>
			<point x="-24.5" y="0.022" type="line"/>
			<point x="25.5" y="-1129.978" type="line"/>
			<point x="24.5" y="-1130.022" type="line"/>
			<point x="-25.5" y="-0.022" type="line"/>
		</contour>
	</outline>
</glyph>
<glyph name="neg.-116" format="2">
	<advance width="50"/>
	<outline>
		<contour>
			<point x="-21.004" y="0.172" type="line"/>
			<point x="28.996" y="-1159.828" type="line"/>
			<point x="21.004" y="-1160.172" type="line"/>
			<point x="-28.996" y="-0.172" type="line"/>
		</contour>
	</outline>
</glyph>
<glyph name="neg.-117" format="2">
	<advance width="50"/>
	<outline>
		<contour>
			<point x="-24.5" y="0.021" type="line"/>
			<point x="25.5" y="-1169.979" type="line"/>
			<point x="24.5" y="-1170.021" type="line"/>
			<point x="-25.5" y="-0.021" type="line"/>
		</contour>
	</outline>
</glyph>
<glyph name="neg.-118" format="2">
	<advance width="50"/>
	<outline>
		<contour>
			<point x="-24.5" y="0.021" type="line"/>
			<point x="25.5" y="-1179.979" type="line"/>
			<point x="24.5" y="-1180.021" type="line"/>
			<point x="-25.5" y="-0.021" type="line"/>
		</contour>
	</outline>
</glyph>
<glyph name="neg.-119" format="2">
	<advance width="50"/>
	<outline>
		<contour>
			<point x="-21.004" y="0.168" type="line"/>
			<point x="28.996" y="-1189.832" type="line"/>
			<point x="21.004" y="-1190.168" type="line"/>
			<point x="-28.996" y="-0.168" type="line"/>
		</contour>
	</outline>
</glyph>
<glyph name="neg.-12" format="2">
	<advance width="50"/>
	<outline>
		<contour>
			<point x="-24.538" y="0.192" type="line"/>
			<point x="25.462" y="-119.808" type="line"/>
			<point x="24.538" y="-120.192" type="line"/>
			<point x="-25.462" y="-0.192" type="line"/>
		</contour>
	</outline>
</glyph>
<glyph name="neg.-120" format="2">
	<advance width="50"/>
	<outline>
		<contour>
			<point x="-21.003" y="0.167" type="line"/>
			<point x="28.997" y="-1199.833" type="line"/>
			<point x="21.003" y="-1200.167" type="line"/>
			<point x="-28.997" y="-0.167" type="line"/>
		</contour>
	</outline>
</glyph>
<glyph name="neg.-122" format="2">
	<advance width="50"/>
	<outline>
		<contour>
			<point x="-24.5" y="0.02" type="line"/>
			<point x="25.5" y="-1219.98" type="line"/>
			<point x="24.5" y="-1220.02" type="line"/>
			<point x="-25.5" y="-0.02" type="line"/>
		</contour>
	</outline>
</glyph>
<glyph name="neg.-125" format="2">
	<advance width="50"/>
	<outline>
		<contour>
			<point x="-21.003" y="0.16" type="line"/>
			<point x="28.997" y="-1249.84" type="line"/>
			<point x="21.003" y="-1250.16" type="line"/>
			<point x="-28.997" y="-0.16" type="line"/>
		</contour>
	</outline>
</glyph>
<glyph name="neg.-126" format="2">
	<advance width="50"/>
	<outline>
		<contour>
			<point x="-22.502" y="0.099" type="line"/>
			<point x="27.498" y="-1259.901" type="line"/>
			<point x="22.502" y="-1260.099" type="line"/>
			<point x="-27.498" y="-0.099" type="line"/>
		</contour>
	</outline>
</glyph>
<glyph name="neg.-13" format="2">
	<advance width="50"/>
	<outline>
		<contour>
			<point x="-22.667" y="0.897" type="line"/>
			<point x="27.333" y="-129.103" type="line"/>
			<point x="22.667" y="-130.897" type="line"/>
			<point x="-27.333" y="-0.897" type="line"/>
		</contour>
	</outline>
</glyph>
<glyph name="neg.-14" format="2">
	<advance width="50"/>
	<outline>
		<contour>
			<point x="-24.529" y="0.168" type="line"/>
			<point x="25.471" y="-139.832" type="line"/>
			<point x="24.529" y="-140.168" type="line"/>
			<point x="-25.471" y="-0.168" type="line"/>
		</contour>
	</outline>
</glyph>
<glyph name="neg.-15" format="2">
	<advance width="50"/>
	<outline>
		<contour>
			<point x="-24.526" y="0.158" type="line"/>
			<point x="25.474" y="-149.842" type="line"/>
			<point x="24.526" y="-150.158" type="line"/>
			<point x="-25.474" y="-0.158" type="line"/>
		</contour>
	</outline>
</glyph>
<glyph name="neg.-16" format="2">
	<advance width="50"/>
	<outline>
		<contour>
			<point x="-24.523" y="0.149" type="line"/>
			<point x="25.477" y="-159.851" type="line"/>
			<point x="24.523" y="-160.149" type="line"/>
			<point x="-25.477" y="-0.149" type="line"/>
		</contour>
	</outline>
</glyph>
<glyph name="neg.-17" format="2">
	<advance width="50"/>
	<outline>
		<contour>
			<point x="-24.52" y="0.141" type="line"/>
			<point x="25.48" y="-169.859" type="line"/>
			<point x="24.52" y="-170.141" type="line"/>
			<point x="-25.48" y="-0.141" type="line"/>
		</contour>
	</outline>
</glyph>
<glyph name="neg.-18" format="2">
	<advance width="50"/>
	<outline>
		<contour>
			<point x="-24.518" y="0.134" type="line"/>
			<point x="25.482" y="-179.866" type="line"/>
			<point x="24.518" y="-180.134" type="line"/>
			<point x="-25.482" y="-0.134" type="line"/>
		</contour>
	</outline>
</glyph>
<glyph name="neg.-19" format="2">
	<advance width="50"/>
	<outline>
		<contour>
			<point x="-21.132" y="1.018" type="line"/>
			<point x="28.868" y="-188.982" type="line"/>
			<point x="21.132" y="-191.018" type="line"/>
			<point x="-28.868" y="-1.018" type="line"/>
		</contour>
	</outline>
</glyph>
<glyph name="neg.-20" format="2">
	<advance width="50"/>
	<outline>
		<contour>
			<point x="-21.119" y="0.97" type="line"/>
			<point x="28.881" y="-199.03" type="line"/>
			<point x="21.119" y="-200.97" type="line"/>
			<point x="-28.881" y="-0.97" type="line"/>
		</contour>
	</outline>
</glyph>
<glyph name="neg.-21" format="2">
	<advance width="50"/>
	<outline>
		<contour>
			<point x="-22.568" y="0.579" type="line"/>
			<point x="27.432" y="-209.421" type="line"/>
			<point x="22.568" y="-210.579" type="line"/>
			<point x="-27.432" y="-0.579" type="line"/>
		</contour>
	</outline>
</glyph>
<glyph name="neg.-22" format="2">
	<advance width="50"/>
	<outline>
		<contour>
			<point x="-21.099" y="0.886" type="line"/>
			<point x="28.901" y="-219.114" type="line"/>
			<point x="21.099" y="-220.886" type="line"/>
			<point x="-28.901" y="-0.886" type="line"/>
		</contour>
	</outline>
</glyph>
<glyph name="neg.-24" format="2">
	<advance width="50"/>
	<outline>
		<contour>
			<point x="-22.553" y="0.51" type="line"/>
			<point x="27.447" y="-239.49" type="line"/>
			<point x="22.553" y="-240.51" type="line"/>
			<point x="-27.447" y="-0.51" type="line"/>
		</contour>
	</outline>
</glyph>
<glyph name="neg.-25" format="2">
	<advance width="50"/>
	<outline>
		<contour>
			<point x="-24.51" y="0.098" type="line"/>
			<point x="25.49" y="-249.902" type="line"/>
			<point x="24.51" y="-250.098" type="line"/>
			<point x="-25.49" y="-0.098" type="line"/>
		</contour>
	</outline>
</glyph>
<glyph name="neg.-26" format="2">
	<advance width="50"/>
	<outline>
		<contour>
			<point x="-21.072" y="0.755" type="line"/>
			<point x="28.928" y="-259.245" type="line"/>
			<point x="21.072" y="-260.755" type="line"/>
			<point x="-28.928" y="-0.755" type="line"/>
		</contour>
	</outline>
</glyph>
<glyph name="neg.-27" format="2">
	<advance width="50"/>
	<outline>
		<contour>
			<point x="-24.508" y="0.091" type="line"/>
			<point x="25.492" y="-269.909" type="line"/>
			<point x="24.508" y="-270.091" type="line"/>
			<point x="-25.492" y="-0.091" type="line"/>
		</contour>
	</outline>
</glyph>
<glyph name="neg.-28" format="2">
	<advance width="50"/>
	<outline>
		<contour>
			<point x="-21.062" y="0.703" type="line"/>
			<point x="28.938" y="-279.297" type="line"/>
			<point x="21.062" y="-280.703" type="line"/>
			<point x="-28.938" y="-0.703" type="line"/>
		</contour>
	</outline>
</glyph>
<glyph name="neg.-29" format="2">
	<advance width="50"/>
	<outline>
		<contour>
			<point x="-22.536" y="0.425" type="line"/>
			<point x="27.464" y="-289.575" type="line"/>
			<point x="22.536" y="-290.425" type="line"/>
			<point x="-27.464" y="-0.425" type="line"/>
		</contour>
	</outline>
</glyph>
<glyph name="neg.-3" format="2">
	<advance width="50"/>
	<outline>
		<contour>
			<point x="-22.942" y="3.43" type="line"/>
			<point x="27.058" y="-26.57" type="line"/>
			<point x="22.942" y="-33.43" type="line"/>
			<point x="-27.058" y="-3.43" type="line"/>
		</contour>
	</outline>
</glyph>
<glyph name="neg.-30" format="2">
	<advance width="50"/>
	<outline>
		<contour>
			<point x="-21.054" y="0.658" type="line"/>
			<point x="28.946" y="-299.342" type="line"/>
			<point x="21.054" y="-300.658" type="line"/>
			<point x="-28.946" y="-0.658" type="line"/>
		</contour>
	</outline>
</glyph>
<glyph name="neg.-31" format="2">
	<advance width="50"/>
	<outline>
		<contour>
			<point x="-21.051" y="0.637" type="line"/>
			<point x="28.949" y="-309.363" type="line"/>
			<point x="21.051" y="-310.637" type="line"/>
			<point x="-28.949" y="-0.637" type="line"/>
		</contour>
	</outline>
</glyph>
<glyph name="neg.-32" format="2">
	<advance width="50"/>
	<outline>
		<contour>
			<point x="-21.048" y="0.618" type="line"/>
			<point x="28.952" y="-319.382" type="line"/>
			<point x="21.048" y="-320.618" type="line"/>
			<point x="-28.952" y="-0.618" type="line"/>
		</contour>
	</outline>
</glyph>
<glyph name="neg.-34" format="2">
	<advance width="50"/>
	<outline>
		<contour>
			<point x="-24.505" y="0.073" type="line"/>
			<point x="25.495" y="-339.927" type="line"/>
			<point x="24.505" y="-340.073" type="line"/>
			<point x="-25.495" y="-0.073" type="line"/>
		</contour>
	</outline>
</glyph>
<glyph name="neg.-35" format="2">
	<advance width="50"/>
	<outline>
		<contour>
			<point x="-21.04" y="0.566" type="line"/>
			<point x="28.96" y="-349.434" type="line"/>
			<point x="21.04" y="-350.566" type="line"/>
			<point x="-28.96" y="-0.566" type="line"/>
		</contour>
	</outline>
</glyph>
<glyph name="neg.-37" format="2">
	<advance width="50"/>
	<outline>
		<contour>
			<point x="-24.505" y="0.067" type="line"/>
			<point x="25.495" y="-369.933" type="line"/>
			<point x="24.505" y="-370.067" type="line"/>
			<point x="-25.495" y="-0.067" type="line"/>
		</contour>
	</outline>
</glyph>
<glyph name="neg.-38" format="2">
	<advance width="50"/>
	<outline>
		<contour>
			<point x="-21.034" y="0.522" type="line"/>
			<point x="28.966" y="-379.478" type="line"/>
			<point x="21.034" y="-380.522" type="line"/>
			<point x="-28.966" y="-0.522" type="line"/>
		</contour>
	</outline>
</glyph>
<glyph name="neg.-4" format="2">
	<advance width="50"/>
	<outline>
		<contour>
			<point x="-22.501" y="3.123" type="line"/>
			<point x="27.499" y="-36.877" type="line"/>
			<point x="22.501" y="-43.123" type="line"/>
			<point x="-27.499" y="-3.123" type="line"/>
		</contour>
	</outline>
</glyph>
<glyph name="neg.-40" format="2">
	<advance width="50"/>
	<outline>
		<contour>
			<point x="-22.519" y="0.31" type="line"/>
			<point x="27.481" y="-399.69" type="line"/>
			<point x="22.519" y="-400.31" type="line"/>
			<point x="-27.481" y="-0.31" type="line"/>
		</contour>
	</outline>
</glyph>
<glyph name="neg.-42" format="2">
	<advance width="50"/>
	<outline>
		<contour>
			<point x="-21.028" y="0.473" type="line"/>
			<point x="28.972" y="-419.527" type="line"/>
			<point x="21.028" y="-420.473" type="line"/>
			<point x="-28.972" y="-0.473" type="line"/>
		</contour>
	</outline>
</glyph>
<glyph name="neg.-43" format="2">
	<advance width="50"/>
	<outline>
		<contour>
			<point x="-21.027" y="0.462" type="line"/>
			<point x="28.973" y="-429.538" type="line"/>
			<point x="21.027" y="-430.462" type="line"/>
			<point x="-28.973" y="-0.462" type="line"/>
		</contour>
	</outline>
</glyph>
<glyph name="neg.-44" format="2">
	<advance width="50"/>
	<outline>
		<contour>
			<point x="-24.503" y="0.056" type="line"/>
			<point x="25.497" y="-439.944" type="line"/>
			<point x="24.503" y="-440.056" type="line"/>
			<point x="-25.497" y="-0.056" type="line"/>
		</contour>
	</outline>
</glyph>
<glyph name="neg.-45" format="2">
	<advance width="50"/>
	<outline>
		<contour>
			<point x="-24.503" y="0.055" type="line"/>
			<point x="25.497" y="-449.945" type="line"/>
			<point x="24.503" y="-450.055" type="line"/>
			<point x="-25.497" y="-0.055" type="line"/>
		</contour>
	</outline>
</glyph>
<glyph name="neg.-46" format="2">
	<advance width="50"/>
	<outline>
		<contour>
			<point x="-24.503" y="0.054" type="line"/>
			<point x="25.497" y="-459.946" type="line"/>
			<point x="24.503" y="-460.054" type="line"/>
			<point x="-25.497" y="-0.054" type="line"/>
		</contour>
	</outline>
</glyph>
<glyph name="neg.-47" format="2">
	<advance width="50"/>
	<outline>
		<contour>
			<point x="-21.022" y="0.423" type="line"/>
			<point x="28.978" y="-469.577" type="line"/>
			<point x="21.022" y="-470.423" type="line"/>
			<point x="-28.978" y="-0.423" type="line"/>
		</contour>
	</outline>
</glyph>
<glyph name="neg.-48" format="2">
	<advance width="50"/>
	<outline>
		<contour>
			<point x="-24.503" y="0.052" type="line"/>
			<point x="25.497" y="-479.948" type="line"/>
			<point x="24.503" y="-480.052" type="line"/>
			<point x="-25.497" y="-0.052" type="line"/>
		</contour>
	</outline>
</glyph>
<glyph name="neg.-49" format="2">
	<advance width="50"/>
	<outline>
		<contour>
			<point x="-21.021" y="0.406" type="line"/>
			<point x="28.979" y="-489.594" type="line"/>
			<point x="21.021" y="-490.406" type="line"/>
			<point x="-28.979" y="-0.406" type="line"/>
		</contour>
	</outline>
</glyph>
<glyph name="neg.-5" format="2">
	<advance width="50"/>
	<outline>
		<contour>
			<point x="-24.646" y="0.354" type="line"/>
			<point x="25.354" y="-49.646" type="line"/>
			<point x="24.646" y="-50.354" type="line"/>
			<point x="-25.354" y="-0.354" type="line"/>
		</contour>
	</outline>
</glyph>
<glyph name="neg.-50" format="2">
	<advance width="50"/>
	<outline>
		<contour>
			<point x="-22.512" y="0.249" type="line"/>
			<point x="27.488" y="-499.751" type="line"/>
			<point x="22.512" y="-500.249" type="line"/>
			<point x="-27.488" y="-0.249" type="line"/>
		</contour>
	</outline>
</glyph>
<glyph name="neg.-51" format="2">
	<advance width="50"/>
	<outline>
		<contour>
			<point x="-24.502" y="0.049" type="line"/>
			<point x="25.498" y="-509.951" type="line"/>
			<point x="24.502" y="-510.049" type="line"/>
			<point x="-25.498" y="-0.049" type="line"/>
		</contour>
	</outline>
</glyph>
<glyph name="neg.-53" format="2">
	<advance width="50"/>
	<outline>
		<contour>
			<point x="-22.511" y="0.235" type="line"/>
			<point x="27.489" y="-529.765" type="line"/>
			<point x="22.511" y="-530.235" type="line"/>
			<point x="-27.489" y="-0.235" type="line"/>
		</contour>
	</outline>
</glyph>
<glyph name="neg.-54" format="2">
	<advance width="50"/>
	<outline>
		<contour>
			<point x="-24.502" y="0.046" type="line"/>
			<point x="25.498" y="-539.954" type="line"/>
			<point x="24.502" y="-540.046" type="line"/>
			<point x="-25.498" y="-0.046" type="line"/>
		</contour>
	</outline>
</glyph>
<glyph name="neg.-55" format="2">
	<advance width="50"/>
	<outline>
		<contour>
			<point x="-21.016" y="0.362" type="line"/>
			<point x="28.984" y="-549.638" type="line"/>
			<point x="21.016" y="-550.362" type="line"/>
			<point x="-28.984" y="-0.362" type="line"/>
		</contour>
	</outline>
</glyph>
<glyph name="neg.-56" format="2">
	<advance width="50"/>
	<outline>
		<contour>
			<point x="-24.502" y="0.044" type="line"/>
			<point x="25.498" y="-559.956" type="line"/>
			<point x="24.502" y="-560.044" type="line"/>
			<point x="-25.498" y="-0.044" type="line"/>
		</contour>
	</outline>
</glyph>
<glyph name="neg.-57" format="2">
	<advance width="50"/>
	<outline>
		<contour>
			<point x="-21.015" y="0.35" type="line"/>
			<point x="28.985" y="-569.65" type="line"/>
			<point x="21.015" y="-570.35" type="line"/>
			<point x="-28.985" y="-0.35" type="line"/>
		</contour>
	</outline>
</glyph>
<glyph name="neg.-58" format="2">
	<advance width="50"/>
	<outline>
		<contour>
			<point x="-21.015" y="0.344" type="line"/>
			<point x="28.985" y="-579.656" type="line"/>
			<point x="21.015" y="-580.344" type="line"/>
			<point x="-28.985" y="-0.344" type="line"/>
		</contour>
	</outline>
</glyph>
<glyph name="neg.-59" format="2">
	<advance width="50"/>
	<outline>
		<contour>
			<point x="-24.502" y="0.042" type="line"/>
			<point x="25.498" y="-589.958" type="line"/>
			<point x="24.502" y="-590.042" type="line"/>
			<point x="-25.498" y="-0.042" type="line"/>
		</contour>
	</outline>
</glyph>
<glyph name="neg.-6" format="2">
	<advance width="50"/>
	<outline>
		<contour>
			<point x="-23.079" y="1.6" type="line"/>
			<point x="26.921" y="-58.4" type="line"/>
			<point x="23.079" y="-61.6" type="line"/>
			<point x="-26.921" y="-1.6" type="line"/>
		</contour>
	</outline>
</glyph>
<glyph name="neg.-60" format="2">
	<advance width="50"/>
	<outline>
		<contour>
			<point x="-21.014" y="0.332" type="line"/>
			<point x="28.986" y="-599.668" type="line"/>
			<point x="21.014" y="-600.332" type="line"/>
			<point x="-28.986" y="-0.332" type="line"/>
		</contour>
	</outline>
</glyph>
<glyph name="neg.-61" format="2">
	<advance width="50"/>
	<outline>
		<contour>
			<point x="-21.013" y="0.327" type="line"/>
			<point x="28.987" y="-609.673" type="line"/>
			<point x="21.013" y="-610.327" type="line"/>
			<point x="-28.987" y="-0.327" type="line"/>
		</contour>
	</outline>
</glyph>
<glyph name="neg.-63" format="2">
	<advance width="50"/>
	<outline>
		<contour>
			<point x="-24.502" y="0.04" type="line"/>
			<point x="25.498" y="-629.96" type="line"/>
			<point x="24.502" y="-630.04" type="line"/>
			<point x="-25.498" y="-0.04" type="line"/>
		</contour>
	</outline>
</glyph>
<glyph name="neg.-64" format="2">
	<advance width="50"/>
	<outline>
		<contour>
			<point x="-24.502" y="0.039" type="line"/>
			<point x="25.498" y="-639.961" type="line"/>
			<point x="24.502" y="-640.039" type="line"/>
			<point x="-25.498" y="-0.039" type="line"/>
		</contour>
	</outline>
</glyph>
<glyph name="neg.-65" format="2">
	<advance width="50"/>
	<outline>
		<contour>
			<point x="-24.501" y="0.038" type="line"/>
			<point x="25.499" y="-649.962" type="line"/>
			<point x="24.501" y="-650.038" type="line"/>
			<point x="-25.499" y="-0.038" type="line"/>
		</contour>
	</outline>
</glyph>
<glyph name="neg.-66" format="2">
	<advance width="50"/>
	<outline>
		<contour>
			<point x="-24.501" y="0.038" type="line"/>
			<point x="25.499" y="-659.962" type="line"/>
			<point x="24.501" y="-660.038" type="line"/>
			<point x="-25.499" y="-0.038" type="line"/>
		</contour>
	</outline>
</glyph>
<glyph name="neg.-67" format="2">
	<advance width="50"/>
	<outline>
		<contour>
			<point x="-21.011" y="0.298" type="line"/>
			<point x="28.989" y="-669.702" type="line"/>
			<point x="21.011" y="-670.298" type="line"/>
			<point x="-28.989" y="-0.298" type="line"/>
		</contour>
	</outline>
</glyph>
<glyph name="neg.-68" format="2">
	<advance width="50"/>
	<outline>
		<contour>
			<point x="-21.011" y="0.293" type="line"/>
			<point x="28.989" y="-679.707" type="line"/>
			<point x="21.011" y="-680.293" type="line"/>
			<point x="-28.989" y="-0.293" type="line"/>
		</contour>
	</outline>
</glyph>
<glyph name="neg.-69" format="2">
	<advance width="50"/>
	<outline>
		<contour>
			<point x="-24.501" y="0.036" type="line"/>
			<point x="25.499" y="-689.964" type="line"/>
			<point x="24.501" y="-690.036" type="line"/>
			<point x="-25.499" y="-0.036" type="line"/>
		</contour>
	</outline>
</glyph>
<glyph name="neg.-7" format="2">
	<advance width="50"/>
	<outline>
		<contour>
			<point x="-21.745" y="2.325" type="line"/>
			<point x="28.255" y="-67.675" type="line"/>
			<point x="21.745" y="-72.325" type="line"/>
			<point x="-28.255" y="-2.325" type="line"/>
		</contour>
	</outline>
</glyph>
<glyph name="neg.-70" format="2">
	<advance width="50"/>
	<outline>
		<contour>
			<point x="-24.501" y="0.036" type="line"/>
			<point x="25.499" y="-699.964" type="line"/>
			<point x="24.501" y="-700.036" type="line"/>
			<point x="-25.499" y="-0.036" type="line"/>
		</contour>
	</outline>
</glyph>
<glyph name="neg.-71" format="2">
	<advance width="50"/>
	<outline>
		<contour>
			<point x="-21.01" y="0.281" type="line"/>
			<point x="28.99" y="-709.719" type="line"/>
			<point x="21.01" y="-710.281" type="line"/>
			<point x="-28.99" y="-0.281" type="line"/>
		</contour>
	</outline>
</glyph>
<glyph name="neg.-73" format="2">
	<advance width="50"/>
	<outline>
		<contour>
			<point x="-22.506" y="0.171" type="line"/>
			<point x="27.494" y="-729.829" type="line"/>
			<point x="22.506" y="-730.171" type="line"/>
			<point x="-27.494" y="-0.171" type="line"/>
		</contour>
	</outline>
</glyph>
<glyph name="neg.-74" format="2">
	<advance width="50"/>
	<outline>
		<contour>
			<point x="-24.501" y="0.034" type="line"/>
			<point x="25.499" y="-739.966" type="line"/>
			<point x="24.501" y="-740.034" type="line"/>
			<point x="-25.499" y="-0.034" type="line"/>
		</contour>
	</outline>
</glyph>
<glyph name="neg.-75" format="2">
	<advance width="50"/>
	<outline>
		<contour>
			<point x="-21.009" y="0.266" type="line"/>
			<point x="28.991" y="-749.734" type="line"/>
			<point x="21.009" y="-750.266" type="line"/>
			<point x="-28.991" y="-0.266" type="line"/>
		</contour>
	</outline>
</glyph>
<glyph name="neg.-76" format="2">
	<advance width="50"/>
	<outline>
		<contour>
			<point x="-21.009" y="0.263" type="line"/>
			<point x="28.991" y="-759.737" type="line"/>
			<point x="21.009" y="-760.263" type="line"/>
			<point x="-28.991" y="-0.263" type="line"/>
		</contour>
	</outline>
</glyph>
<glyph name="neg.-78" format="2">
	<advance width="50"/>
	<outline>
		<contour>
			<point x="-21.008" y="0.256" type="line"/>
			<point x="28.992" y="-779.744" type="line"/>
			<point x="21.008" y="-780.256" type="line"/>
			<point x="-28.992" y="-0.256" type="line"/>
		</contour>
	</outline>
</glyph>
<glyph name="neg.-79" format="2">
	<advance width="50"/>
	<outline>
		<contour>
			<point x="-21.008" y="0.253" type="line"/>
			<point x="28.992" y="-789.747" type="line"/>
			<point x="21.008" y="-790.253" type="line"/>
			<point x="-28.992" y="-0.253" type="line"/>
		</contour>
	</outline>
</glyph>
<glyph name="neg.-8" format="2">
	<advance width="50"/>
	<outline>
		<contour>
			<point x="-24.576" y="0.265" type="line"/>
			<point x="25.424" y="-79.735" type="line"/>
			<point x="24.576" y="-80.265" type="line"/>
			<point x="-25.424" y="-0.265" type="line"/>
		</contour>
	</outline>
</glyph>
<glyph name="neg.-80" format="2">
	<advance width="50"/>
	<outline>
		<contour>
			<point x="-24.501" y="0.031" type="line"/>
			<point x="25.499" y="-799.969" type="line"/>
			<point x="24.501" y="-800.031" type="line"/>
			<point x="-25.499" y="-0.031" type="line"/>
		</contour>
	</outline>
</glyph>
<glyph name="neg.-81" format="2">
	<advance width="50"/>
	<outline>
		<contour>
			<point x="-24.501" y="0.031" type="line"/>
			<point x="25.499" y="-809.969" type="line"/>
			<point x="24.501" y="-810.031" type="line"/>
			<point x="-25.499" y="-0.031" type="line"/>
		</contour>
	</outline>
</glyph>
<glyph name="neg.-82" format="2">
	<advance width="50"/>
	<outline>
		<contour>
			<point x="-21.007" y="0.243" type="line"/>
			<point x="28.993" y="-819.757" type="line"/>
			<point x="21.007" y="-820.243" type="line"/>
			<point x="-28.993" y="-0.243" type="line"/>
		</contour>
	</outline>
</glyph>
<glyph name="neg.-84" format="2">
	<advance width="50"/>
	<outline>
		<contour>
			<point x="-24.501" y="0.03" type="line"/>
			<point x="25.499" y="-839.97" type="line"/>
			<point x="24.501" y="-840.03" type="line"/>
			<point x="-25.499" y="-0.03" type="line"/>
		</contour>
	</outline>
</glyph>
<glyph name="neg.-85" format="2">
	<advance width="50"/>
	<outline>
		<contour>
			<point x="-21.007" y="0.235" type="line"/>
			<point x="28.993" y="-849.765" type="line"/>
			<point x="21.007" y="-850.235" type="line"/>
			<point x="-28.993" y="-0.235" type="line"/>
		</contour>
	</outline>
</glyph>
<glyph name="neg.-86" format="2">
	<advance width="50"/>
	<outline>
		<contour>
			<point x="-21.007" y="0.232" type="line"/>
			<point x="28.993" y="-859.768" type="line"/>
			<point x="21.007" y="-860.232" type="line"/>
			<point x="-28.993" y="-0.232" type="line"/>
		</contour>
	</outline>
</glyph>
<glyph name="neg.-87" format="2">
	<advance width="50"/>
	<outline>
		<contour>
			<point x="-21.007" y="0.23" type="line"/>
			<point x="28.993" y="-869.77" type="line"/>
			<point x="21.007" y="-870.23" type="line"/>
			<point x="-28.993" y="-0.23" type="line"/>
		</contour>
	</outline>
</glyph>
<glyph name="neg.-88" format="2">
	<advance width="50"/>
	<outline>
		<contour>
			<point x="-24.501" y="0.028" type="line"/>
			<point x="25.499" y="-879.972" type="line"/>
			<point x="24.501" y="-880.028" type="line"/>
			<point x="-25.499" y="-0.028" type="line"/>
		</contour>
	</outline>
</glyph>
<glyph name="neg.-89" format="2">
	<advance width="50"/>
	<outline>
		<contour>
			<point x="-24.501" y="0.028" type="line"/>
			<point x="25.499" y="-889.972" type="line"/>
			<point x="24.501" y="-890.028" type="line"/>
			<point x="-25.499" y="-0.028" type="line"/>
		</contour>
	</outline>
</glyph>
<glyph name="neg.-9" format="2">
	<advance width="50"/>
	<outline>
		<contour>
			<point x="-21.503" y="1.943" type="line"/>
			<point x="28.497" y="-88.057" type="line"/>
			<point x="21.503" y="-91.943" type="line"/>
			<point x="-28.497" y="-1.943" type="line"/>
		</contour>
	</outline>
</glyph>
<glyph name="neg.-90" format="2">
	<advance width="50"/>
	<outline>
		<contour>
			<point x="-24.501" y="0.028" type="line"/>
			<point x="25.499" y="-899.972" type="line"/>
			<point x="24.501" y="-900.028" type="line"/>
			<point x="-25.499" y="-0.028" type="line"/>
		</contour>
	</outline>
</glyph>
<glyph name="neg.-91" format="2">
	<advance width="50"/>
	<outline>
		<contour>
			<point x="-21.006" y="0.219" type="line"/>
			<point x="28.994" y="-909.781" type="line"/>
			<point x="21.006" y="-910.219" type="line"/>
			<point x="-28.994" y="-0.219" type="line"/>
		</contour>
	</outline>
</glyph>
<glyph name="neg.-92" format="2">
	<advance width="50"/>
	<outline>
		<contour>
			<point x="-24.501" y="0.027" type="line"/>
			<point x="25.499" y="-919.973" type="line"/>
			<point x="24.501" y="-920.027" type="line"/>
			<point x="-25.499" y="-0.027" type="line"/>
		</contour>
	</outline>
</glyph>
<glyph name="neg.-94" format="2">
	<advance width="50"/>
	<outline>
		<contour>
			<point x="-21.006" y="0.212" type="line"/>
			<point x="28.994" y="-939.788" type="line"/>
			<point x="21.006" y="-940.212" type="line"/>
			<point x="-28.994" y="-0.212" type="line"/>
		</contour>
	</outline>
</glyph>
<glyph name="neg.-95" format="2">
	<advance width="50"/>
	<outline>
		<contour>
			<point x="-21.006" y="0.21" type="line"/>
			<point x="28.994" y="-949.79" type="line"/>
			<point x="21.006" y="-950.21" type="line"/>
			<point x="-28.994" y="-0.21" type="line"/>
		</contour>
	</outline>
</glyph>
<glyph name="neg.-96" format="2">
	<advance width="50"/>
	<outline>
		<contour>
			<point x="-21.005" y="0.208" type="line"/>
			<point x="28.995" y="-959.792" type="line"/>
			<point x="21.005" y="-960.208" type="line"/>
			<point x="-28.995" y="-0.208" type="line"/>
		</contour>
	</outline>
</glyph>
<glyph name="neg.-98" format="2">
	<advance width="50"/>
	<outline>
		<contour>
			<point x="-24.501" y="0.025" type="line"/>
			<point x="25.499" y="-979.975" type="line"/>
			<point x="24.501" y="-980.025" type="line"/>
			<point x="-25.499" y="-0.025" type="line"/>
		</contour>
	</outline>
</glyph>
<glyph name="neg.-99" format="2">
	<advance width="50"/>
	<outline>
		<contour>
			<point x="-24.501" y="0.025" type="line"/>
			<point x="25.499" y="-989.975" type="line"/>
			<point x="24.501" y="-990.025" type="line"/>
			<point x="-25.499" y="-0.025" type="line"/>
		</contour>
	</outline>
</glyph>
<glyph name="pos.1" format="2">
	<advance width="50"/>
	<outline>
		<contour>
			<point x="-25.49" y="2.451" type="line"/>
			<point x="24.51" y="12.451" type="line"/>
			<point x="25.49" y="7.549" type="line"/>
			<point x="-24.51" y="-2.451" type="line"/>
		</contour>
	</outline>
</glyph>
<glyph name="pos.10" format="2">
	<advance width="50"/>
	<outline>
		<contour>
			<point x="-28.578" y="1.789" type="line"/>
			<point x="21.422" y="101.789" type="line"/>
			<point x="28.578" y="98.211" type="line"/>
			<point x="-21.422" y="-1.789" type="line"/>
		</contour>
	</outline>
</glyph>
<glyph name="pos.101" format="2">
	<advance width="50"/>
	<outline>
		<contour>
			<point x="-25.499" y="0.025" type="line"/>
			<point x="24.501" y="1010.025" type="line"/>
			<point x="25.499" y="1009.975" type="line"/>
			<point x="-24.501" y="-0.025" type="line"/>
		</contour>
	</outline>
</glyph>
<glyph name="pos.102" format="2">
	<advance width="50"/>
	<outline>
		<contour>
			<point x="-28.995" y="0.196" type="line"/>
			<point x="21.005" y="1020.196" type="line"/>
			<point x="28.995" y="1019.804" type="line"/>
			<point x="-21.005" y="-0.196" type="line"/>
		</contour>
	</outline>
</glyph>
<glyph name="pos.104" format="2">
	<advance width="50"/>
	<outline>
		<contour>
			<point x="-28.995" y="0.192" type="line"/>
			<point x="21.005" y="1040.192" type="line"/>
			<point x="28.995" y="1039.808" type="line"/>
			<point x="-21.005" y="-0.192" type="line"/>
		</contour>
	</outline>
</glyph>
<glyph name="pos.106" format="2">
	<advance width="50"/>
	<outline>
		<contour>
			<point x="-28.996" y="0.188" type="line"/>
			<point x="21.004" y="1060.188" type="line"/>
			<point x="28.996" y="1059.812" type="line"/>
			<point x="-21.004" y="-0.188" type="line"/>
		</contour>
	</outline>
</glyph>
<glyph name="pos.107" format="2">
	<advance width="50"/>
	<outline>
		<contour>
			<point x="-28.996" y="0.187" type="line"/>
			<point x="21.004" y="1070.187" type="line"/>
			<point x="28.996" y="1069.813" type="line"/>
			<point x="-21.004" y="-0.187" type="line"/>
		</contour>
	</outline>
</glyph>
<glyph name="pos.108" format="2">
	<advance width="50"/>
	<outline>
		<contour>
			<point x="-27.497" y="0.116" type="line"/>
			<point x="22.503" y="1080.116" type="line"/>
			<point x="27.497" y="1079.884" type="line"/>
			<point x="-22.503" y="-0.116" type="line"/>
		</contour>
	</outline>
</glyph>
<glyph name="pos.11" format="2">
	<advance width="50"/>
	<outline>
		<contour>
			<point x="-27.276" y="1.035" type="line"/>
			<point x="22.724" y="111.035" type="line"/>
			<point x="27.276" y="108.965" type="line"/>
			<point x="-22.724" y="-1.035" type="line"/>
		</contour>
	</outline>
</glyph>
<glyph name="pos.110" format="2">
	<advance width="50"/>
	<outline>
		<contour>
			<point x="-25.499" y="0.023" type="line"/>
			<point x="24.501" y="1100.023" type="line"/>
			<point x="25.499" y="1099.977" type="line"/>
			<point x="-24.501" y="-0.023" type="line"/>
		</contour>
	</outline>
</glyph>
<glyph name="pos.111" format="2">
	<advance width="50"/>
	<outline>
		<contour>
			<point x="-28.996" y="0.18" type="line"/>
			<point x="21.004" y="1110.18" type="line"/>
			<point x="28.996" y="1109.82" type="line"/>
			<point x="-21.004" y="-0.18" type="line"/>
		</contour>
	</outline>
</glyph>
<glyph name="pos.112" format="2">
	<advance width="50"/>
	<outline>
		<contour>
			<point x="-28.996" y="0.178" type="line"/>
			<point x="21.004" y="1120.178" type="line"/>
			<point x="28.996" y="1119.822" type="line"/>
			<point x="-21.004" y="-0.178" type="line"/>
		</contour>
	</outline>
</glyph>
<glyph name="pos.114" format="2">
	<advance width="50"/>
	<outline>
		<contour>
			<point x="-28.996" y="0.175" type="line"/>
			<point x="21.004" y="1140.175" type="line"/>
			<point x="28.996" y="1139.825" type="line"/>
			<point x="-21.004" y="-0.175" type="line"/>
		</contour>
	</outline>
</glyph>
<glyph name="pos.115" format="2">
	<advance width="50"/>
	<outline>
		<contour>
			<point x="-25.5" y="0.022" type="line"/>
			<point x="24.5" y="1150.022" type="line"/>
			<point x="25.5" y="1149.978" type="line"/>
			<point x="-24.5" y="-0.022" type="line"/>
		</contour>
	</outline>
</glyph>
<glyph name="pos.118" format="2">
	<advance width="50"/>
	<outline>
		<contour>
			<point x="-28.996" y="0.169" type="line"/>
			<point x="21.004" y="1180.169" type="line"/>
			<point x="28.996" y="1179.831" type="line"/>
			<point x="-21.004" y="-0.169" type="line"/>
		</contour>
	</outline>
</glyph>
<glyph name="pos.119" format="2">
	<advance width="50"/>
	<outline>
		<contour>
			<point x="-27.498" y="0.105" type="line"/>
			<point x="22.502" y="1190.105" type="line"/>
			<point x="27.498" y="1189.895" type="line"/>
			<point x="-22.502" y="-0.105" type="line"/>
		</contour>
	</outline>
</glyph>
<glyph name="pos.12" format="2">
	<advance width="50"/>
	<outline>
		<contour>
			<point x="-28.692" y="1.538" type="line"/>
			<point x="21.308" y="121.538" type="line"/>
			<point x="28.692" y="118.462" type="line"/>
			<point x="-21.308" y="-1.538" type="line"/>
		</contour>
	</outline>
</glyph>
<glyph name="pos.121" format="2">
	<advance width="50"/>
	<outline>
		<contour>
			<point x="-28.997" y="0.165" type="line"/>
			<point x="21.003" y="1210.165" type="line"/>
			<point x="28.997" y="1209.835" type="line"/>
			<point x="-21.003" y="-0.165" type="line"/>
		</contour>
	</outline>
</glyph>
<glyph name="pos.122" format="2">
	<advance width="50"/>
	<outline>
		<contour>
			<point x="-28.997" y="0.164" type="line"/>
			<point x="21.003" y="1220.164" type="line"/>
			<point x="28.997" y="1219.836" type="line"/>
			<point x="-21.003" y="-0.164" type="line"/>
		</contour>
	</outline>
</glyph>
<glyph name="pos.123" format="2">
	<advance width="50"/>
	<outline>
		<contour>
			<point x="-28.997" y="0.162" type="line"/>
			<point x="21.003" y="1230.162" type="line"/>
			<point x="28.997" y="1229.838" type="line"/>
			<point x="-21.003" y="-0.162" type="line"/>
		</contour>
	</outline>
</glyph>
<glyph name="pos.124" format="2">
	<advance width="50"/>
	<outline>
		<contour>
			<point x="-28.997" y="0.161" type="line"/>
			<point x="21.003" y="1240.161" type="line"/>
			<point x="28.997" y="1239.839" type="line"/>
			<point x="-21.003" y="-0.161" type="line"/>
		</contour>
	</outline>
</glyph>
<glyph name="pos.126" format="2">
	<advance width="50"/>
	<outline>
		<contour>
			<point x="-28.997" y="0.159" type="line"/>
			<point x="21.003" y="1260.159" type="line"/>
			<point x="28.997" y="1259.841" type="line"/>
			<point x="-21.003" y="-0.159" type="line"/>
		</contour>
	</outline>
</glyph>
<glyph name="pos.127" format="2">
	<advance width="50"/>
	<outline>
		<contour>
			<point x="-28.997" y="0.157" type="line"/>
			<point x="21.003" y="1270.157" type="line"/>
			<point x="28.997" y="1269.843" type="line"/>
			<point x="-21.003" y="-0.157" type="line"/>
		</contour>
	</outline>
</glyph>
<glyph name="pos.16" format="2">
	<advance width="50"/>
	<outline>
		<contour>
			<point x="-28.818" y="1.193" type="line"/>
			<point x="21.182" y="161.193" type="line"/>
			<point x="28.818" y="158.807" type="line"/>
			<point x="-21.182" y="-1.193" type="line"/>
		</contour>
	</outline>
</glyph>
<glyph name="pos.17" format="2">
	<advance width="50"/>
	<outline>
		<contour>
			<point x="-28.837" y="1.129" type="line"/>
			<point x="21.163" y="171.129" type="line"/>
			<point x="28.837" y="168.871" type="line"/>
			<point x="-21.163" y="-1.129" type="line"/>
		</contour>
	</outline>
</glyph>
<glyph name="pos.18" format="2">
	<advance width="50"/>
	<outline>
		<contour>
			<point x="-28.854" y="1.071" type="line"/>
			<point x="21.146" y="181.071" type="line"/>
			<point x="28.854" y="178.929" type="line"/>
			<point x="-21.146" y="-1.071" type="line"/>
		</contour>
	</outline>
</glyph>
<glyph name="pos.19" format="2">
	<advance width="50"/>
	<outline>
		<contour>
			<point x="-25.484" y="0.127" type="line"/>
			<point x="24.516" y="190.127" type="line"/>
			<point x="25.484" y="189.873" type="line"/>
			<point x="-24.516" y="-0.127" type="line"/>
		</contour>
	</outline>
</glyph>
<glyph name="pos.2" format="2">
	<advance width="50"/>
	<outline>
		<contour>
			<point x="-26.486" y="3.714" type="line"/>
			<point x="23.514" y="23.714" type="line"/>
			<point x="26.486" y="16.286" type="line"/>
			<point x="-23.514" y="-3.714" type="line"/>
		</contour>
	</outline>
</glyph>
<glyph name="pos.20" format="2">
	<advance width="50"/>
	<outline>
		<contour>
			<point x="-25.485" y="0.121" type="line"/>
			<point x="24.515" y="200.121" type="line"/>
			<point x="25.485" y="199.879" type="line"/>
			<point x="-24.515" y="-0.121" type="line"/>
		</contour>
	</outline>
</glyph>
<glyph name="pos.21" format="2">
	<advance width="50"/>
	<outline>
		<contour>
			<point x="-25.486" y="0.116" type="line"/>
			<point x="24.514" y="210.116" type="line"/>
			<point x="25.486" y="209.884" type="line"/>
			<point x="-24.514" y="-0.116" type="line"/>
		</contour>
	</outline>
</glyph>
<glyph name="pos.22" format="2">
	<advance width="50"/>
	<outline>
		<contour>
			<point x="-27.438" y="0.554" type="line"/>
			<point x="22.562" y="220.554" type="line"/>
			<point x="27.438" y="219.446" type="line"/>
			<point x="-22.562" y="-0.554" type="line"/>
		</contour>
	</outline>
</glyph>
<glyph name="pos.23" format="2">
	<advance width="50"/>
	<outline>
		<contour>
			<point x="-25.489" y="0.106" type="line"/>
			<point x="24.511" y="230.106" type="line"/>
			<point x="25.489" y="229.894" type="line"/>
			<point x="-24.511" y="-0.106" type="line"/>
		</contour>
	</outline>
</glyph>
<glyph name="pos.24" format="2">
	<advance width="50"/>
	<outline>
		<contour>
			<point x="-25.489" y="0.102" type="line"/>
			<point x="24.511" y="240.102" type="line"/>
			<point x="25.489" y="239.898" type="line"/>
			<point x="-24.511" y="-0.102" type="line"/>
		</contour>
	</outline>
</glyph>
<glyph name="pos.25" format="2">
	<advance width="50"/>
	<outline>
		<contour>
			<point x="-28.922" y="0.784" type="line"/>
			<point x="21.078" y="250.784" type="line"/>
			<point x="28.922" y="249.216" type="line"/>
			<point x="-21.078" y="-0.784" type="line"/>
		</contour>
	</outline>
</glyph>
<glyph name="pos.26" format="2">
	<advance width="50"/>
	<outline>
		<contour>
			<point x="-25.491" y="0.094" type="line"/>
			<point x="24.509" y="260.094" type="line"/>
			<point x="25.491" y="259.906" type="line"/>
			<point x="-24.509" y="-0.094" type="line"/>
		</contour>
	</outline>
</glyph>
<glyph name="pos.27" format="2">
	<advance width="50"/>
	<outline>
		<contour>
			<point x="-27.458" y="0.455" type="line"/>
			<point x="22.542" y="270.455" type="line"/>
			<point x="27.458" y="269.545" type="line"/>
			<point x="-22.542" y="-0.455" type="line"/>
		</contour>
	</outline>
</glyph>
<glyph name="pos.28" format="2">
	<advance width="50"/>
	<outline>
		<contour>
			<point x="-25.492" y="0.088" type="line"/>
			<point x="24.508" y="280.088" type="line"/>
			<point x="25.492" y="279.912" type="line"/>
			<point x="-24.508" y="-0.088" type="line"/>
		</contour>
	</outline>
</glyph>
<glyph name="pos.29" format="2">
	<advance width="50"/>
	<outline>
		<contour>
			<point x="-28.942" y="0.68" type="line"/>
			<point x="21.058" y="290.68" type="line"/>
			<point x="28.942" y="289.32" type="line"/>
			<point x="-21.058" y="-0.68" type="line"/>
		</contour>
	</outline>
</glyph>
<glyph name="pos.3" format="2">
	<advance width="50"/>
	<outline>
		<contour>
			<point x="-26.286" y="2.144" type="line"/>
			<point x="23.714" y="32.144" type="line"/>
			<point x="26.286" y="27.856" type="line"/>
			<point x="-23.714" y="-2.144" type="line"/>
		</contour>
	</outline>
</glyph>
<glyph name="pos.33" format="2">
	<advance width="50"/>
	<outline>
		<contour>
			<point x="-25.494" y="0.075" type="line"/>
			<point x="24.506" y="330.075" type="line"/>
			<point x="25.494" y="329.925" type="line"/>
			<point x="-24.506" y="-0.075" type="line"/>
		</contour>
	</outline>
</glyph>
<glyph name="pos.34" format="2">
	<advance width="50"/>
	<outline>
		<contour>
			<point x="-28.957" y="0.582" type="line"/>
			<point x="21.043" y="340.582" type="line"/>
			<point x="28.957" y="339.418" type="line"/>
			<point x="-21.043" y="-0.582" type="line"/>
		</contour>
	</outline>
</glyph>
<glyph name="pos.36" format="2">
	<advance width="50"/>
	<outline>
		<contour>
			<point x="-28.962" y="0.55" type="line"/>
			<point x="21.038" y="360.55" type="line"/>
			<point x="28.962" y="359.45" type="line"/>
			<point x="-21.038" y="-0.55" type="line"/>
		</contour>
	</outline>
</glyph>
<glyph name="pos.37" format="2">
	<advance width="50"/>
	<outline>
		<contour>
			<point x="-28.964" y="0.536" type="line"/>
			<point x="21.036" y="370.536" type="line"/>
			<point x="28.964" y="369.464" type="line"/>
			<point x="-21.036" y="-0.536" type="line"/>
		</contour>
	</outline>
</glyph>
<glyph name="pos.39" format="2">
	<advance width="50"/>
	<outline>
		<contour>
			<point x="-28.968" y="0.509" type="line"/>
			<point x="21.032" y="390.509" type="line"/>
			<point x="28.968" y="389.491" type="line"/>
			<point x="-21.032" y="-0.509" type="line"/>
		</contour>
	</outline>
</glyph>
<glyph name="pos.4" format="2">
	<advance width="50"/>
	<outline>
		<contour>
			<point x="-25.312" y="0.39" type="line"/>
			<point x="24.688" y="40.39" type="line"/>
			<point x="25.312" y="39.61" type="line"/>
			<point x="-24.688" y="-0.39" type="line"/>
		</contour>
	</outline>
</glyph>
<glyph name="pos.40" format="2">
	<advance width="50"/>
	<outline>
		<contour>
			<point x="-25.496" y="0.062" type="line"/>
			<point x="24.504" y="400.062" type="line"/>
			<point x="25.496" y="399.938" type="line"/>
			<point x="-24.504" y="-0.062" type="line"/>
		</contour>
	</outline>
</glyph>
<glyph name="pos.41" format="2">
	<advance width="50"/>
	<outline>
		<contour>
			<point x="-28.971" y="0.484" type="line"/>
			<point x="21.029" y="410.484" type="line"/>
			<point x="28.971" y="409.516" type="line"/>
			<point x="-21.029" y="-0.484" type="line"/>
		</contour>
	</outline>
</glyph>
<glyph name="pos.43" format="2">
	<advance width="50"/>
	<outline>
		<contour>
			<point x="-25.497" y="0.058" type="line"/>
			<point x="24.503" y="430.058" type="line"/>
			<point x="25.497" y="429.942" type="line"/>
			<point x="-24.503" y="-0.058" type="line"/>
		</contour>
	</outline>
</glyph>
<glyph name="pos.45" format="2">
	<advance width="50"/>
	<outline>
		<contour>
			<point x="-28.976" y="0.442" type="line"/>
			<point x="21.024" y="450.442" type="line"/>
			<point x="28.976" y="449.558" type="line"/>
			<point x="-21.024" y="-0.442" type="line"/>
		</contour>
	</outline>
</glyph>
<glyph name="pos.46" format="2">
	<advance width="50"/>
	<outline>
		<contour>
			<point x="-28.977" y="0.432" type="line"/>
			<point x="21.023" y="460.432" type="line"/>
			<point x="28.977" y="459.568" type="line"/>
			<point x="-21.023" y="-0.432" type="line"/>
		</contour>
	</outline>
</glyph>
<glyph name="pos.47" format="2">
	<advance width="50"/>
	<outline>
		<contour>
			<point x="-25.497" y="0.053" type="line"/>
			<point x="24.503" y="470.053" type="line"/>
			<point x="25.497" y="469.947" type="line"/>
			<point x="-24.503" y="-0.053" type="line"/>
		</contour>
	</outline>
</glyph>
<glyph name="pos.49" format="2">
	<advance width="50"/>
	<outline>
		<contour>
			<point x="-25.497" y="0.051" type="line"/>
			<point x="24.503" y="490.051" type="line"/>
			<point x="25.497" y="489.949" type="line"/>
			<point x="-24.503" y="-0.051" type="line"/>
		</contour>
	</outline>
</glyph>
<glyph name="pos.5" format="2">
	<advance width="50"/>
	<outline>
		<contour>
			<point x="-27.828" y="2.828" type="line"/>
			<point x="22.172" y="52.828" type="line"/>
			<point x="27.828" y="47.172" type="line"/>
			<point x="-22.172" y="-2.828" type="line"/>
		</contour>
	</outline>
</glyph>
<glyph name="pos.50" format="2">
	<advance width="50"/>
	<outline>
		<contour>
			<point x="-28.98" y="0.398" type="line"/>
			<point x="21.02" y="500.398" type="line"/>
			<point x="28.98" y="499.602" type="line"/>
			<point x="-21.02" y="-0.398" type="line"/>
		</contour>
	</outline>
</glyph>
<glyph name="pos.51" format="2">
	<advance width="50"/>
	<outline>
		<contour>
			<point x="-28.981" y="0.39" type="line"/>
			<point x="21.019" y="510.39" type="line"/>
			<point x="28.981" y="509.61" type="line"/>
			<point x="-21.019" y="-0.39" type="line"/>
		</contour>
	</outline>
</glyph>
<glyph name="pos.52" format="2">
	<advance width="50"/>
	<outline>
		<contour>
			<point x="-28.982" y="0.383" type="line"/>
			<point x="21.018" y="520.383" type="line"/>
			<point x="28.982" y="519.617" type="line"/>
			<point x="-21.018" y="-0.383" type="line"/>
		</contour>
	</outline>
</glyph>
<glyph name="pos.53" format="2">
	<advance width="50"/>
	<outline>
		<contour>
			<point x="-28.982" y="0.376" type="line"/>
			<point x="21.018" y="530.376" type="line"/>
			<point x="28.982" y="529.624" type="line"/>
			<point x="-21.018" y="-0.376" type="line"/>
		</contour>
	</outline>
</glyph>
<glyph name="pos.54" format="2">
	<advance width="50"/>
	<outline>
		<contour>
			<point x="-27.489" y="0.23" type="line"/>
			<point x="22.511" y="540.23" type="line"/>
			<point x="27.489" y="539.77" type="line"/>
			<point x="-22.511" y="-0.23" type="line"/>
		</contour>
	</outline>
</glyph>
<glyph name="pos.55" format="2">
	<advance width="50"/>
	<outline>
		<contour>
			<point x="-25.498" y="0.045" type="line"/>
			<point x="24.502" y="550.045" type="line"/>
			<point x="25.498" y="549.955" type="line"/>
			<point x="-24.502" y="-0.045" type="line"/>
		</contour>
	</outline>
</glyph>
<glyph name="pos.56" format="2">
	<advance width="50"/>
	<outline>
		<contour>
			<point x="-27.49" y="0.222" type="line"/>
			<point x="22.51" y="560.222" type="line"/>
			<point x="27.49" y="559.778" type="line"/>
			<point x="-22.51" y="-0.222" type="line"/>
		</contour>
	</outline>
</glyph>
<glyph name="pos.58" format="2">
	<advance width="50"/>
	<outline>
		<contour>
			<point x="-27.491" y="0.215" type="line"/>
			<point x="22.509" y="580.215" type="line"/>
			<point x="27.491" y="579.785" type="line"/>
			<point x="-22.509" y="-0.215" type="line"/>
		</contour>
	</outline>
</glyph>
<glyph name="pos.59" format="2">
	<advance width="50"/>
	<outline>
		<contour>
			<point x="-28.986" y="0.338" type="line"/>
			<point x="21.014" y="590.338" type="line"/>
			<point x="28.986" y="589.662" type="line"/>
			<point x="-21.014" y="-0.338" type="line"/>
		</contour>
	</outline>
</glyph>
<glyph name="pos.6" format="2">
	<advance width="50"/>
	<outline>
		<contour>
			<point x="-25.384" y="0.32" type="line"/>
			<point x="24.616" y="60.32" type="line"/>
			<point x="25.384" y="59.68" type="line"/>
			<point x="-24.616" y="-0.32" type="line"/>
		</contour>
	</outline>
</glyph>
<glyph name="pos.60" format="2">
	<advance width="50"/>
	<outline>
		<contour>
			<point x="-27.491" y="0.208" type="line"/>
			<point x="22.509" y="600.208" type="line"/>
			<point x="27.491" y="599.792" type="line"/>
			<point x="-22.509" y="-0.208" type="line"/>
		</contour>
	</outline>
</glyph>
<glyph name="pos.61" format="2">
	<advance width="50"/>
	<outline>
		<contour>
			<point x="-25.498" y="0.041" type="line"/>
			<point x="24.502" y="610.041" type="line"/>
			<point x="25.498" y="609.959" type="line"/>
			<point x="-24.502" y="-0.041" type="line"/>
		</contour>
	</outline>
</glyph>
<glyph name="pos.62" format="2">
	<advance width="50"/>
	<outline>
		<contour>
			<point x="-25.498" y="0.04" type="line"/>
			<point x="24.502" y="620.04" type="line"/>
			<point x="25.498" y="619.96" type="line"/>
			<point x="-24.502" y="-0.04" type="line"/>
		</contour>
	</outline>
</glyph>
<glyph name="pos.63" format="2">
	<advance width="50"/>
	<outline>
		<contour>
			<point x="-27.492" y="0.198" type="line"/>
			<point x="22.508" y="630.198" type="line"/>
			<point x="27.492" y="629.802" type="line"/>
			<point x="-22.508" y="-0.198" type="line"/>
		</contour>
	</outline>
</glyph>
<glyph name="pos.65" format="2">
	<advance width="50"/>
	<outline>
		<contour>
			<point x="-27.493" y="0.192" type="line"/>
			<point x="22.507" y="650.192" type="line"/>
			<point x="27.493" y="649.808" type="line"/>
			<point x="-22.507" y="-0.192" type="line"/>
		</contour>
	</outline>
</glyph>
<glyph name="pos.66" format="2">
	<advance width="50"/>
	<outline>
		<contour>
			<point x="-28.989" y="0.302" type="line"/>
			<point x="21.011" y="660.302" type="line"/>
			<point x="28.989" y="659.698" type="line"/>
			<point x="-21.011" y="-0.302" type="line"/>
		</contour>
	</outline>
</glyph>
<glyph name="pos.67" format="2">
	<advance width="50"/>
	<outline>
		<contour>
			<point x="-25.499" y="0.037" type="line"/>
			<point x="24.501" y="670.037" type="line"/>
			<point x="25.499" y="669.963" type="line"/>
			<point x="-24.501" y="-0.037" type="line"/>
		</contour>
	</outline>
</glyph>
<glyph name="pos.69" format="2">
	<advance width="50"/>
	<outline>
		<contour>
			<point x="-28.99" y="0.289" type="line"/>
			<point x="21.01" y="690.289" type="line"/>
			<point x="28.99" y="689.711" type="line"/>
			<point x="-21.01" y="-0.289" type="line"/>
		</contour>
	</outline>
</glyph>
<glyph name="pos.7" format="2">
	<advance width="50"/>
	<outline>
		<contour>
			<point x="-25.407" y="0.291" type="line"/>
			<point x="24.593" y="70.291" type="line"/>
			<point x="25.407" y="69.709" type="line"/>
			<point x="-24.593" y="-0.291" type="line"/>
		</contour>
	</outline>
</glyph>
<glyph name="pos.72" format="2">
	<advance width="50"/>
	<outline>
		<contour>
			<point x="-28.99" y="0.277" type="line"/>
			<point x="21.01" y="720.277" type="line"/>
			<point x="28.99" y="719.723" type="line"/>
			<point x="-21.01" y="-0.277" type="line"/>
		</contour>
	</outline>
</glyph>
<glyph name="pos.73" format="2">
	<advance width="50"/>
	<outline>
		<contour>
			<point x="-28.991" y="0.273" type="line"/>
			<point x="21.009" y="730.273" type="line"/>
			<point x="28.991" y="729.727" type="line"/>
			<point x="-21.009" y="-0.273" type="line"/>
		</contour>
	</outline>
</glyph>
<glyph name="pos.74" format="2">
	<advance width="50"/>
	<outline>
		<contour>
			<point x="-28.991" y="0.27" type="line"/>
			<point x="21.009" y="740.27" type="line"/>
			<point x="28.991" y="739.73" type="line"/>
			<point x="-21.009" y="-0.27" type="line"/>
		</contour>
	</outline>
</glyph>
<glyph name="pos.76" format="2">
	<advance width="50"/>
	<outline>
		<contour>
			<point x="-25.499" y="0.033" type="line"/>
			<point x="24.501" y="760.033" type="line"/>
			<point x="25.499" y="759.967" type="line"/>
			<point x="-24.501" y="-0.033" type="line"/>
		</contour>
	</outline>
</glyph>
<glyph name="pos.77" format="2">
	<advance width="50"/>
	<outline>
		<contour>
			<point x="-28.992" y="0.259" type="line"/>
			<point x="21.008" y="770.259" type="line"/>
			<point x="28.992" y="769.741" type="line"/>
			<point x="-21.008" y="-0.259" type="line"/>
		</contour>
	</outline>
</glyph>
<glyph name="pos.78" format="2">
	<advance width="50"/>
	<outline>
		<contour>
			<point x="-27.495" y="0.16" type="line"/>
			<point x="22.505" y="780.16" type="line"/>
			<point x="27.495" y="779.84" type="line"/>
			<point x="-22.505" y="-0.16" type="line"/>
		</contour>
	</outline>
</glyph>
<glyph name="pos.79" format="2">
	<advance width="50"/>
	<outline>
		<contour>
			<point x="-25.499" y="0.032" type="line"/>
			<point x="24.501" y="790.032" type="line"/>
			<point x="25.499" y="789.968" type="line"/>
			<point x="-24.501" y="-0.032" type="line"/>
		</contour>
	</outline>
</glyph>
<glyph name="pos.81" format="2">
	<advance width="50"/>
	<outline>
		<contour>
			<point x="-28.992" y="0.246" type="line"/>
			<point x="21.008" y="810.246" type="line"/>
			<point x="28.992" y="809.754" type="line"/>
			<point x="-21.008" y="-0.246" type="line"/>
		</contour>
	</outline>
</glyph>
<glyph name="pos.83" format="2">
	<advance width="50"/>
	<outline>
		<contour>
			<point x="-28.993" y="0.241" type="line"/>
			<point x="21.007" y="830.241" type="line"/>
			<point x="28.993" y="829.759" type="line"/>
			<point x="-21.007" y="-0.241" type="line"/>
		</contour>
	</outline>
</glyph>
<glyph name="pos.84" format="2">
	<advance width="50"/>
	<outline>
		<contour>
			<point x="-28.993" y="0.238" type="line"/>
			<point x="21.007" y="840.238" type="line"/>
			<point x="28.993" y="839.762" type="line"/>
			<point x="-21.007" y="-0.238" type="line"/>
		</contour>
	</outline>
</glyph>
<glyph name="pos.87" format="2">
	<advance width="50"/>
	<outline>
		<contour>
			<point x="-25.499" y="0.029" type="line"/>
			<point x="24.501" y="870.029" type="line"/>
			<point x="25.499" y="869.971" type="line"/>
			<point x="-24.501" y="-0.029" type="line"/>
		</contour>
	</outline>
</glyph>
<glyph name="pos.88" format="2">
	<advance width="50"/>
	<outline>
		<contour>
			<point x="-27.496" y="0.142" type="line"/>
			<point x="22.504" y="880.142" type="line"/>
			<point x="27.496" y="879.858" type="line"/>
			<point x="-22.504" y="-0.142" type="line"/>
		</contour>
	</outline>
</glyph>
<glyph name="pos.89" format="2">
	<advance width="50"/>
	<outline>
		<contour>
			<point x="-27.496" y="0.14" type="line"/>
			<point x="22.504" y="890.14" type="line"/>
			<point x="27.496" y="889.86" type="line"/>
			<point x="-22.504" y="-0.14" type="line"/>
		</contour>
	</outline>
</glyph>
<glyph name="pos.9" format="2">
	<advance width="50"/>
	<outline>
		<contour>
			<point x="-25.437" y="0.243" type="line"/>
			<point x="24.563" y="90.243" type="line"/>
			<point x="25.437" y="89.757" type="line"/>
			<point x="-24.563" y="-0.243" type="line"/>
		</contour>
	</outline>
</glyph>
<glyph name="pos.91" format="2">
	<advance width="50"/>
	<outline>
		<contour>
			<point x="-25.499" y="0.027" type="line"/>
			<point x="24.501" y="910.027" type="line"/>
			<point x="25.499" y="909.973" type="line"/>
			<point x="-24.501" y="-0.027" type="line"/>
		</contour>
	</outline>
</glyph>
<glyph name="pos.92" format="2">
	<advance width="50"/>
	<outline>
		<contour>
			<point x="-27.496" y="0.136" type="line"/>
			<point x="22.504" y="920.136" type="line"/>
			<point x="27.496" y="919.864" type="line"/>
			<point x="-22.504" y="-0.136" type="line"/>
		</contour>
	</outline>
</glyph>
<glyph name="pos.93" format="2">
	<advance width="50"/>
	<outline>
		<contour>
			<point x="-28.994" y="0.215" type="line"/>
			<point x="21.006" y="930.215" type="line"/>
			<point x="28.994" y="929.785" type="line"/>
			<point x="-21.006" y="-0.215" type="line"/>
		</contour>
	</outline>
</glyph>
<glyph name="pos.94" format="2">
	<advance width="50"/>
	<outline>
		<contour>
			<point x="-25.499" y="0.027" type="line"/>
			<point x="24.501" y="940.027" type="line"/>
			<point x="25.499" y="939.973" type="line"/>
			<point x="-24.501" y="-0.027" type="line"/>
		</contour>
	</outline>
</glyph>
<glyph name="pos.95" format="2">
	<advance width="50"/>
	<outline>
		<contour>
			<point x="-25.499" y="0.026" type="line"/>
			<point x="24.501" y="950.026" type="line"/>
			<point x="25.499" y="949.974" type="line"/>
			<point x="-24.501" y="-0.026" type="line"/>
		</contour>
	</outline>
</glyph>
<glyph name="pos.97" format="2">
	<advance width="50"/>
	<outline>
		<contour>
			<point x="-25.499" y="0.026" type="line"/>
			<point x="24.501" y="970.026" type="line"/>
			<point x="25.499" y="969.974" type="line"/>
			<point x="-24.501" y="-0.026" type="line"/>
		</contour>
	</outline>
</glyph>
<glyph name="pos.98" format="2">
	<advance width="50"/>
	<outline>
		<contour>
			<point x="-28.995" y="0.204" type="line"/>
			<point x="21.005" y="980.204" type="line"/>
			<point x="28.995" y="979.796" type="line"/>
			<point x="-21.005" y="-0.204" type="line"/>
		</contour>
	</outline>
</glyph>
<glyph name="pos.99" format="2">
	<advance width="50"/>
	<outline>
		<contour>
			<point x="-28.995" y="0.202" type="line"/>
			<point x="21.005" y="990.202" type="line"/>
			<point x="28.995" y="989.798" type="line"/>
			<point x="-21.005" y="-0.202" type="line"/>
		</contour>
	</outline>
</glyph>
<glyph name="to-1" format="2">
	<advance width="50"/>
	<outline>
		<contour>
			<point x="-24.608" y="1.961" type="line"/>
			<point x="25.392" y="-8.039" type="line"/>
			<point x="24.608" y="-11.961" type="line"/>
			<point x="-25.392" y="-1.961" type="line"/>
		</contour>
	</outline>
</glyph>
<glyph name="to-10" format="2">
	<advance width="50"/>
	<outline>
		<contour>
			<point x="-23.211" y="0.894" type="line"/>
			<point x="26.789" y="-99.106" type="line"/>
			<point x="23.211" y="-100.894" type="line"/>
			<point x="-26.789" y="-0.894" type="line"/>
		</contour>
	</outline>
</glyph>
<glyph name="to-101" format="2">
	<advance width="50"/>
	<outline>
		<contour>
			<point x="-23.002" y="0.099" type="line"/>
			<point x="26.998" y="-1009.901" type="line"/>
			<point x="23.002" y="-1010.099" type="line"/>
			<point x="-26.998" y="-0.099" type="line"/>
		</contour>
	</outline>
</glyph>
<glyph name="to-105" format="2">
	<advance width="50"/>
	<outline>
		<contour>
			<point x="-23.002" y="0.095" type="line"/>
			<point x="26.998" y="-1049.905" type="line"/>
			<point x="23.002" y="-1050.095" type="line"/>
			<point x="-26.998" y="-0.095" type="line"/>
		</contour>
	</outline>
</glyph>
<glyph name="to-107" format="2">
	<advance width="50"/>
	<outline>
		<contour>
			<point x="-23.002" y="0.093" type="line"/>
			<point x="26.998" y="-1069.907" type="line"/>
			<point x="23.002" y="-1070.093" type="line"/>
			<point x="-26.998" y="-0.093" type="line"/>
		</contour>
	</outline>
</glyph>
<glyph name="to-109" format="2">
	<advance width="50"/>
	<outline>
		<contour>
			<point x="-23.002" y="0.092" type="line"/>
			<point x="26.998" y="-1089.908" type="line"/>
			<point x="23.002" y="-1090.092" type="line"/>
			<point x="-26.998" y="-0.092" type="line"/>
		</contour>
	</outline>
</glyph>
<glyph name="to-110" format="2">
	<advance width="50"/>
	<outline>
		<contour>
			<point x="-23.002" y="0.091" type="line"/>
			<point x="26.998" y="-1099.909" type="line"/>
			<point x="23.002" y="-1100.091" type="line"/>
			<point x="-26.998" y="-0.091" type="line"/>
		</contour>
	</outline>
</glyph>
<glyph name="to-111" format="2">
	<advance width="50"/>
	<outline>
		<contour>
			<point x="-23.002" y="0.09" type="line"/>
			<point x="26.998" y="-1109.91" type="line"/>
			<point x="23.002" y="-1110.09" type="line"/>
			<point x="-26.998" y="-0.09" type="line"/>
		</contour>
	</outline>
</glyph>
<glyph name="to-114" format="2">
	<advance width="50"/>
	<outline>
		<contour>
			<point x="-23.002" y="0.088" type="line"/>
			<point x="26.998" y="-1139.912" type="line"/>
			<point x="23.002" y="-1140.088" type="line"/>
			<point x="-26.998" y="-0.088" type="line"/>
		</contour>
	</outline>
</glyph>
<glyph name="to-115" format="2">
	<advance width="50"/>
	<outline>
		<contour>
			<point x="-23.002" y="0.087" type="line"/>
			<point x="26.998" y="-1149.913" type="line"/>
			<point x="23.002" y="-1150.087" type="line"/>
			<point x="-26.998" y="-0.087" type="line"/>
		</contour>
	</outline>
</glyph>
<glyph name="to-117" format="2">
	<advance width="50"/>
	<outline>
		<contour>
			<point x="-22.502" y="0.107" type="line"/>
			<point x="27.498" y="-1169.893" type="line"/>
			<point x="22.502" y="-1170.107" type="line"/>
			<point x="-27.498" y="-0.107" type="line"/>
		</contour>
	</outline>
</glyph>
<glyph name="to-120" format="2">
	<advance width="50"/>
	<outline>
		<contour>
			<point x="-22.502" y="0.104" type="line"/>
			<point x="27.498" y="-1199.896" type="line"/>
			<point x="22.502" y="-1200.104" type="line"/>
			<point x="-27.498" y="-0.104" type="line"/>
		</contour>
	</outline>
</glyph>
<glyph name="to-121" format="2">
	<advance width="50"/>
	<outline>
		<contour>
			<point x="-22.502" y="0.103" type="line"/>
			<point x="27.498" y="-1209.897" type="line"/>
			<point x="22.502" y="-1210.103" type="line"/>
			<point x="-27.498" y="-0.103" type="line"/>
		</contour>
	</outline>
</glyph>
<glyph name="to-122" format="2">
	<advance width="50"/>
	<outline>
		<contour>
			<point x="-23.002" y="0.082" type="line"/>
			<point x="26.998" y="-1219.918" type="line"/>
			<point x="23.002" y="-1220.082" type="line"/>
			<point x="-26.998" y="-0.082" type="line"/>
		</contour>
	</outline>
</glyph>
<glyph name="to-123" format="2">
	<advance width="50"/>
	<outline>
		<contour>
			<point x="-23.002" y="0.081" type="line"/>
			<point x="26.998" y="-1229.919" type="line"/>
			<point x="23.002" y="-1230.081" type="line"/>
			<point x="-26.998" y="-0.081" type="line"/>
		</contour>
	</outline>
</glyph>
<glyph name="to-124" format="2">
	<advance width="50"/>
	<outline>
		<contour>
			<point x="-22.502" y="0.101" type="line"/>
			<point x="27.498" y="-1239.899" type="line"/>
			<point x="22.502" y="-1240.101" type="line"/>
			<point x="-27.498" y="-0.101" type="line"/>
		</contour>
	</outline>
</glyph>
<glyph name="to-13" format="2">
	<advance width="50"/>
	<outline>
		<contour>
			<point x="-23.133" y="0.718" type="line"/>
			<point x="26.867" y="-129.282" type="line"/>
			<point x="23.133" y="-130.718" type="line"/>
			<point x="-26.867" y="-0.718" type="line"/>
		</contour>
	</outline>
</glyph>
<glyph name="to-14" format="2">
	<advance width="50"/>
	<outline>
		<contour>
			<point x="-22.646" y="0.841" type="line"/>
			<point x="27.354" y="-139.159" type="line"/>
			<point x="22.646" y="-140.841" type="line"/>
			<point x="-27.354" y="-0.841" type="line"/>
		</contour>
	</outline>
</glyph>
<glyph name="to-15" format="2">
	<advance width="50"/>
	<outline>
		<contour>
			<point x="-23.103" y="0.632" type="line"/>
			<point x="26.897" y="-149.368" type="line"/>
			<point x="23.103" y="-150.632" type="line"/>
			<point x="-26.897" y="-0.632" type="line"/>
		</contour>
	</outline>
</glyph>
<glyph name="to-16" format="2">
	<advance width="50"/>
	<outline>
		<contour>
			<point x="-22.614" y="0.746" type="line"/>
			<point x="27.386" y="-159.254" type="line"/>
			<point x="22.614" y="-160.746" type="line"/>
			<point x="-27.386" y="-0.746" type="line"/>
		</contour>
	</outline>
</glyph>
<glyph name="to-18" format="2">
	<advance width="50"/>
	<outline>
		<contour>
			<point x="-23.073" y="0.535" type="line"/>
			<point x="26.927" y="-179.465" type="line"/>
			<point x="23.073" y="-180.535" type="line"/>
			<point x="-26.927" y="-0.535" type="line"/>
		</contour>
	</outline>
</glyph>
<glyph name="to-19" format="2">
	<advance width="50"/>
	<outline>
		<contour>
			<point x="-23.066" y="0.509" type="line"/>
			<point x="26.934" y="-189.491" type="line"/>
			<point x="23.066" y="-190.509" type="line"/>
			<point x="-26.934" y="-0.509" type="line"/>
		</contour>
	</outline>
</glyph>
<glyph name="to-2" format="2">
	<advance width="50"/>
	<outline>
		<contour>
			<point x="-24.072" y="2.321" type="line"/>
			<point x="25.928" y="-17.679" type="line"/>
			<point x="24.072" y="-22.321" type="line"/>
			<point x="-25.928" y="-2.321" type="line"/>
		</contour>
	</outline>
</glyph>
<glyph name="to-20" format="2">
	<advance width="50"/>
	<outline>
		<contour>
			<point x="-22.575" y="0.606" type="line"/>
			<point x="27.425" y="-199.394" type="line"/>
			<point x="22.575" y="-200.606" type="line"/>
			<point x="-27.425" y="-0.606" type="line"/>
		</contour>
	</outline>
</glyph>
<glyph name="to-23" format="2">
	<advance width="50"/>
	<outline>
		<contour>
			<point x="-22.557" y="0.531" type="line"/>
			<point x="27.443" y="-229.469" type="line"/>
			<point x="22.557" y="-230.531" type="line"/>
			<point x="-27.443" y="-0.531" type="line"/>
		</contour>
	</outline>
</glyph>
<glyph name="to-25" format="2">
	<advance width="50"/>
	<outline>
		<contour>
			<point x="-23.039" y="0.392" type="line"/>
			<point x="26.961" y="-249.608" type="line"/>
			<point x="23.039" y="-250.392" type="line"/>
			<point x="-26.961" y="-0.392" type="line"/>
		</contour>
	</outline>
</glyph>
<glyph name="to-29" format="2">
	<advance width="50"/>
	<outline>
		<contour>
			<point x="-23.029" y="0.34" type="line"/>
			<point x="26.971" y="-289.66" type="line"/>
			<point x="23.029" y="-290.34" type="line"/>
			<point x="-26.971" y="-0.34" type="line"/>
		</contour>
	</outline>
</glyph>
<glyph name="to-30" format="2">
	<advance width="50"/>
	<outline>
		<contour>
			<point x="-23.027" y="0.329" type="line"/>
			<point x="26.973" y="-299.671" type="line"/>
			<point x="23.027" y="-300.329" type="line"/>
			<point x="-26.973" y="-0.329" type="line"/>
		</contour>
	</outline>
</glyph>
<glyph name="to-32" format="2">
	<advance width="50"/>
	<outline>
		<contour>
			<point x="-22.53" y="0.386" type="line"/>
			<point x="27.47" y="-319.614" type="line"/>
			<point x="22.53" y="-320.386" type="line"/>
			<point x="-27.47" y="-0.386" type="line"/>
		</contour>
	</outline>
</glyph>
<glyph name="to-33" format="2">
	<advance width="50"/>
	<outline>
		<contour>
			<point x="-23.023" y="0.3" type="line"/>
			<point x="26.977" y="-329.7" type="line"/>
			<point x="23.023" y="-330.3" type="line"/>
			<point x="-26.977" y="-0.3" type="line"/>
		</contour>
	</outline>
</glyph>
<glyph name="to-34" format="2">
	<advance width="50"/>
	<outline>
		<contour>
			<point x="-23.021" y="0.291" type="line"/>
			<point x="26.979" y="-339.709" type="line"/>
			<point x="23.021" y="-340.291" type="line"/>
			<point x="-26.979" y="-0.291" type="line"/>
		</contour>
	</outline>
</glyph>
<glyph name="to-36" format="2">
	<advance width="50"/>
	<outline>
		<contour>
			<point x="-22.524" y="0.344" type="line"/>
			<point x="27.476" y="-359.656" type="line"/>
			<point x="22.524" y="-360.344" type="line"/>
			<point x="-27.476" y="-0.344" type="line"/>
		</contour>
	</outline>
</glyph>
<glyph name="to-37" format="2">
	<advance width="50"/>
	<outline>
		<contour>
			<point x="-23.018" y="0.268" type="line"/>
			<point x="26.982" y="-369.732" type="line"/>
			<point x="23.018" y="-370.268" type="line"/>
			<point x="-26.982" y="-0.268" type="line"/>
		</contour>
	</outline>
</glyph>
<glyph name="to-38" format="2">
	<advance width="50"/>
	<outline>
		<contour>
			<point x="-22.521" y="0.326" type="line"/>
			<point x="27.479" y="-379.674" type="line"/>
			<point x="22.521" y="-380.326" type="line"/>
			<point x="-27.479" y="-0.326" type="line"/>
		</contour>
	</outline>
</glyph>
<glyph name="to-39" format="2">
	<advance width="50"/>
	<outline>
		<contour>
			<point x="-23.016" y="0.254" type="line"/>
			<point x="26.984" y="-389.746" type="line"/>
			<point x="23.016" y="-390.254" type="line"/>
			<point x="-26.984" y="-0.254" type="line"/>
		</contour>
	</outline>
</glyph>
<glyph name="to-40" format="2">
	<advance width="50"/>
	<outline>
		<contour>
			<point x="-23.015" y="0.248" type="line"/>
			<point x="26.985" y="-399.752" type="line"/>
			<point x="23.015" y="-400.248" type="line"/>
			<point x="-26.985" y="-0.248" type="line"/>
		</contour>
	</outline>
</glyph>
<glyph name="to-41" format="2">
	<advance width="50"/>
	<outline>
		<contour>
			<point x="-23.015" y="0.242" type="line"/>
			<point x="26.985" y="-409.758" type="line"/>
			<point x="23.015" y="-410.242" type="line"/>
			<point x="-26.985" y="-0.242" type="line"/>
		</contour>
	</outline>
</glyph>
<glyph name="to-42" format="2">
	<advance width="50"/>
	<outline>
		<contour>
			<point x="-23.014" y="0.236" type="line"/>
			<point x="26.986" y="-419.764" type="line"/>
			<point x="23.014" y="-420.236" type="line"/>
			<point x="-26.986" y="-0.236" type="line"/>
		</contour>
	</outline>
</glyph>
<glyph name="to-43" format="2">
	<advance width="50"/>
	<outline>
		<contour>
			<point x="-23.013" y="0.231" type="line"/>
			<point x="26.987" y="-429.769" type="line"/>
			<point x="23.013" y="-430.231" type="line"/>
			<point x="-26.987" y="-0.231" type="line"/>
		</contour>
	</outline>
</glyph>
<glyph name="to-44" format="2">
	<advance width="50"/>
	<outline>
		<contour>
			<point x="-22.516" y="0.282" type="line"/>
			<point x="27.484" y="-439.718" type="line"/>
			<point x="22.516" y="-440.282" type="line"/>
			<point x="-27.484" y="-0.282" type="line"/>
		</contour>
	</outline>
</glyph>
<glyph name="to-46" format="2">
	<advance width="50"/>
	<outline>
		<contour>
			<point x="-23.012" y="0.216" type="line"/>
			<point x="26.988" y="-459.784" type="line"/>
			<point x="23.012" y="-460.216" type="line"/>
			<point x="-26.988" y="-0.216" type="line"/>
		</contour>
	</outline>
</glyph>
<glyph name="to-47" format="2">
	<advance width="50"/>
	<outline>
		<contour>
			<point x="-23.011" y="0.212" type="line"/>
			<point x="26.989" y="-469.788" type="line"/>
			<point x="23.011" y="-470.212" type="line"/>
			<point x="-26.989" y="-0.212" type="line"/>
		</contour>
	</outline>
</glyph>
<glyph name="to-48" format="2">
	<advance width="50"/>
	<outline>
		<contour>
			<point x="-23.011" y="0.207" type="line"/>
			<point x="26.989" y="-479.793" type="line"/>
			<point x="23.011" y="-480.207" type="line"/>
			<point x="-26.989" y="-0.207" type="line"/>
		</contour>
	</outline>
</glyph>
<glyph name="to-49" format="2">
	<advance width="50"/>
	<outline>
		<contour>
			<point x="-23.01" y="0.203" type="line"/>
			<point x="26.99" y="-489.797" type="line"/>
			<point x="23.01" y="-490.203" type="line"/>
			<point x="-26.99" y="-0.203" type="line"/>
		</contour>
	</outline>
</glyph>
<glyph name="to-51" format="2">
	<advance width="50"/>
	<outline>
		<contour>
			<point x="-23.01" y="0.195" type="line"/>
			<point x="26.99" y="-509.805" type="line"/>
			<point x="23.01" y="-510.195" type="line"/>
			<point x="-26.99" y="-0.195" type="line"/>
		</contour>
	</outline>
</glyph>
<glyph name="to-53" format="2">
	<advance width="50"/>
	<outline>
		<contour>
			<point x="-23.009" y="0.188" type="line"/>
			<point x="26.991" y="-529.812" type="line"/>
			<point x="23.009" y="-530.188" type="line"/>
			<point x="-26.991" y="-0.188" type="line"/>
		</contour>
	</outline>
</glyph>
<glyph name="to-56" format="2">
	<advance width="50"/>
	<outline>
		<contour>
			<point x="-23.008" y="0.178" type="line"/>
			<point x="26.992" y="-559.822" type="line"/>
			<point x="23.008" y="-560.178" type="line"/>
			<point x="-26.992" y="-0.178" type="line"/>
		</contour>
	</outline>
</glyph>
<glyph name="to-57" format="2">
	<advance width="50"/>
	<outline>
		<contour>
			<point x="-22.51" y="0.218" type="line"/>
			<point x="27.49" y="-569.782" type="line"/>
			<point x="22.51" y="-570.218" type="line"/>
			<point x="-27.49" y="-0.218" type="line"/>
		</contour>
	</outline>
</glyph>
<glyph name="to-58" format="2">
	<advance width="50"/>
	<outline>
		<contour>
			<point x="-23.007" y="0.172" type="line"/>
			<point x="26.993" y="-579.828" type="line"/>
			<point x="23.007" y="-580.172" type="line"/>
			<point x="-26.993" y="-0.172" type="line"/>
		</contour>
	</outline>
</glyph>
<glyph name="to-59" format="2">
	<advance width="50"/>
	<outline>
		<contour>
			<point x="-23.007" y="0.169" type="line"/>
			<point x="26.993" y="-589.831" type="line"/>
			<point x="23.007" y="-590.169" type="line"/>
			<point x="-26.993" y="-0.169" type="line"/>
		</contour>
	</outline>
</glyph>
<glyph name="to-60" format="2">
	<advance width="50"/>
	<outline>
		<contour>
			<point x="-23.007" y="0.166" type="line"/>
			<point x="26.993" y="-599.834" type="line"/>
			<point x="23.007" y="-600.166" type="line"/>
			<point x="-26.993" y="-0.166" type="line"/>
		</contour>
	</outline>
</glyph>
<glyph name="to-61" format="2">
	<advance width="50"/>
	<outline>
		<contour>
			<point x="-23.007" y="0.163" type="line"/>
			<point x="26.993" y="-609.837" type="line"/>
			<point x="23.007" y="-610.163" type="line"/>
			<point x="-26.993" y="-0.163" type="line"/>
		</contour>
	</outline>
</glyph>
<glyph name="to-62" format="2">
	<advance width="50"/>
	<outline>
		<contour>
			<point x="-22.508" y="0.201" type="line"/>
			<point x="27.492" y="-619.799" type="line"/>
			<point x="22.508" y="-620.201" type="line"/>
			<point x="-27.492" y="-0.201" type="line"/>
		</contour>
	</outline>
</glyph>
<glyph name="to-64" format="2">
	<advance width="50"/>
	<outline>
		<contour>
			<point x="-22.508" y="0.195" type="line"/>
			<point x="27.492" y="-639.805" type="line"/>
			<point x="22.508" y="-640.195" type="line"/>
			<point x="-27.492" y="-0.195" type="line"/>
		</contour>
	</outline>
</glyph>
<glyph name="to-65" format="2">
	<advance width="50"/>
	<outline>
		<contour>
			<point x="-23.006" y="0.153" type="line"/>
			<point x="26.994" y="-649.847" type="line"/>
			<point x="23.006" y="-650.153" type="line"/>
			<point x="-26.994" y="-0.153" type="line"/>
		</contour>
	</outline>
</glyph>
<glyph name="to-66" format="2">
	<advance width="50"/>
	<outline>
		<contour>
			<point x="-23.006" y="0.151" type="line"/>
			<point x="26.994" y="-659.849" type="line"/>
			<point x="23.006" y="-660.151" type="line"/>
			<point x="-26.994" y="-0.151" type="line"/>
		</contour>
	</outline>
</glyph>
<glyph name="to-68" format="2">
	<advance width="50"/>
	<outline>
		<contour>
			<point x="-23.005" y="0.147" type="line"/>
			<point x="26.995" y="-679.853" type="line"/>
			<point x="23.005" y="-680.147" type="line"/>
			<point x="-26.995" y="-0.147" type="line"/>
		</contour>
	</outline>
</glyph>
<glyph name="to-69" format="2">
	<advance width="50"/>
	<outline>
		<contour>
			<point x="-23.005" y="0.145" type="line"/>
			<point x="26.995" y="-689.855" type="line"/>
			<point x="23.005" y="-690.145" type="line"/>
			<point x="-26.995" y="-0.145" type="line"/>
		</contour>
	</outline>
</glyph>
<glyph name="to-7" format="2">
	<advance width="50"/>
	<outline>
		<contour>
			<point x="-23.373" y="1.162" type="line"/>
			<point x="26.627" y="-68.838" type="line"/>
			<point x="23.373" y="-71.162" type="line"/>
			<point x="-26.627" y="-1.162" type="line"/>
		</contour>
	</outline>
</glyph>
<glyph name="to-70" format="2">
	<advance width="50"/>
	<outline>
		<contour>
			<point x="-22.506" y="0.178" type="line"/>
			<point x="27.494" y="-699.822" type="line"/>
			<point x="22.506" y="-700.178" type="line"/>
			<point x="-27.494" y="-0.178" type="line"/>
		</contour>
	</outline>
</glyph>
<glyph name="to-71" format="2">
	<advance width="50"/>
	<outline>
		<contour>
			<point x="-23.005" y="0.14" type="line"/>
			<point x="26.995" y="-709.86" type="line"/>
			<point x="23.005" y="-710.14" type="line"/>
			<point x="-26.995" y="-0.14" type="line"/>
		</contour>
	</outline>
</glyph>
<glyph name="to-72" format="2">
	<advance width="50"/>
	<outline>
		<contour>
			<point x="-23.005" y="0.139" type="line"/>
			<point x="26.995" y="-719.861" type="line"/>
			<point x="23.005" y="-720.139" type="line"/>
			<point x="-26.995" y="-0.139" type="line"/>
		</contour>
	</outline>
</glyph>
<glyph name="to-74" format="2">
	<advance width="50"/>
	<outline>
		<contour>
			<point x="-22.506" y="0.169" type="line"/>
			<point x="27.494" y="-739.831" type="line"/>
			<point x="22.506" y="-740.169" type="line"/>
			<point x="-27.494" y="-0.169" type="line"/>
		</contour>
	</outline>
</glyph>
<glyph name="to-75" format="2">
	<advance width="50"/>
	<outline>
		<contour>
			<point x="-23.004" y="0.133" type="line"/>
			<point x="26.996" y="-749.867" type="line"/>
			<point x="23.004" y="-750.133" type="line"/>
			<point x="-26.996" y="-0.133" type="line"/>
		</contour>
	</outline>
</glyph>
<glyph name="to-76" format="2">
	<advance width="50"/>
	<outline>
		<contour>
			<point x="-23.004" y="0.131" type="line"/>
			<point x="26.996" y="-759.869" type="line"/>
			<point x="23.004" y="-760.131" type="line"/>
			<point x="-26.996" y="-0.131" type="line"/>
		</contour>
	</outline>
</glyph>
<glyph name="to-79" format="2">
	<advance width="50"/>
	<outline>
		<contour>
			<point x="-22.505" y="0.158" type="line"/>
			<point x="27.495" y="-789.842" type="line"/>
			<point x="22.505" y="-790.158" type="line"/>
			<point x="-27.495" y="-0.158" type="line"/>
		</contour>
	</outline>
</glyph>
<glyph name="to-8" format="2">
	<advance width="50"/>
	<outline>
		<contour>
			<point x="-23.304" y="1.06" type="line"/>
			<point x="26.696" y="-78.94" type="line"/>
			<point x="23.304" y="-81.06" type="line"/>
			<point x="-26.696" y="-1.06" type="line"/>
		</contour>
	</outline>
</glyph>
<glyph name="to-80" format="2">
	<advance width="50"/>
	<outline>
		<contour>
			<point x="-22.505" y="0.156" type="line"/>
			<point x="27.495" y="-799.844" type="line"/>
			<point x="22.505" y="-800.156" type="line"/>
			<point x="-27.495" y="-0.156" type="line"/>
		</contour>
	</outline>
</glyph>
<glyph name="to-81" format="2">
	<advance width="50"/>
	<outline>
		<contour>
			<point x="-22.505" y="0.154" type="line"/>
			<point x="27.495" y="-809.846" type="line"/>
			<point x="22.505" y="-810.154" type="line"/>
			<point x="-27.495" y="-0.154" type="line"/>
		</contour>
	</outline>
</glyph>
<glyph name="to-82" format="2">
	<advance width="50"/>
	<outline>
		<contour>
			<point x="-23.004" y="0.122" type="line"/>
			<point x="26.996" y="-819.878" type="line"/>
			<point x="23.004" y="-820.122" type="line"/>
			<point x="-26.996" y="-0.122" type="line"/>
		</contour>
	</outline>
</glyph>
<glyph name="to-83" format="2">
	<advance width="50"/>
	<outline>
		<contour>
			<point x="-23.004" y="0.12" type="line"/>
			<point x="26.996" y="-829.88" type="line"/>
			<point x="23.004" y="-830.12" type="line"/>
			<point x="-26.996" y="-0.12" type="line"/>
		</contour>
	</outline>
</glyph>
<glyph name="to-84" format="2">
	<advance width="50"/>
	<outline>
		<contour>
			<point x="-22.504" y="0.149" type="line"/>
			<point x="27.496" y="-839.851" type="line"/>
			<point x="22.504" y="-840.149" type="line"/>
			<point x="-27.496" y="-0.149" type="line"/>
		</contour>
	</outline>
</glyph>
<glyph name="to-85" format="2">
	<advance width="50"/>
	<outline>
		<contour>
			<point x="-22.504" y="0.147" type="line"/>
			<point x="27.496" y="-849.853" type="line"/>
			<point x="22.504" y="-850.147" type="line"/>
			<point x="-27.496" y="-0.147" type="line"/>
		</contour>
	</outline>
</glyph>
<glyph name="to-87" format="2">
	<advance width="50"/>
	<outline>
		<contour>
			<point x="-22.504" y="0.143" type="line"/>
			<point x="27.496" y="-869.857" type="line"/>
			<point x="22.504" y="-870.143" type="line"/>
			<point x="-27.496" y="-0.143" type="line"/>
		</contour>
	</outline>
</glyph>
<glyph name="to-88" format="2">
	<advance width="50"/>
	<outline>
		<contour>
			<point x="-23.003" y="0.113" type="line"/>
			<point x="26.997" y="-879.887" type="line"/>
			<point x="23.003" y="-880.113" type="line"/>
			<point x="-26.997" y="-0.113" type="line"/>
		</contour>
	</outline>
</glyph>
<glyph name="to-9" format="2">
	<advance width="50"/>
	<outline>
		<contour>
			<point x="-22.815" y="1.214" type="line"/>
			<point x="27.185" y="-88.786" type="line"/>
			<point x="22.815" y="-91.214" type="line"/>
			<point x="-27.185" y="-1.214" type="line"/>
		</contour>
	</outline>
</glyph>
<glyph name="to-93" format="2">
	<advance width="50"/>
	<outline>
		<contour>
			<point x="-22.504" y="0.134" type="line"/>
			<point x="27.496" y="-929.866" type="line"/>
			<point x="22.504" y="-930.134" type="line"/>
			<point x="-27.496" y="-0.134" type="line"/>
		</contour>
	</outline>
</glyph>
<glyph name="to-94" format="2">
	<advance width="50"/>
	<outline>
		<contour>
			<point x="-23.003" y="0.106" type="line"/>
			<point x="26.997" y="-939.894" type="line"/>
			<point x="23.003" y="-940.106" type="line"/>
			<point x="-26.997" y="-0.106" type="line"/>
		</contour>
	</outline>
</glyph>
<glyph name="to-95" format="2">
	<advance width="50"/>
	<outline>
		<contour>
			<point x="-22.503" y="0.131" type="line"/>
			<point x="27.497" y="-949.869" type="line"/>
			<point x="22.503" y="-950.131" type="line"/>
			<point x="-27.497" y="-0.131" type="line"/>
		</contour>
	</outline>
</glyph>
<glyph name="to-96" format="2">
	<advance width="50"/>
	<outline>
		<contour>
			<point x="-22.503" y="0.13" type="line"/>
			<point x="27.497" y="-959.87" type="line"/>
			<point x="22.503" y="-960.13" type="line"/>
			<point x="-27.497" y="-0.13" type="line"/>
		</contour>
	</outline>
</glyph>
<glyph name="to10" format="2">
	<advance width="50"/>
	<outline>
		<contour>
			<point x="-27.236" y="1.118" type="line"/>
			<point x="22.764" y="101.118" type="line"/>
			<point x="27.236" y="98.882" type="line"/>
			<point x="-22.764" y="-1.118" type="line"/>
		</contour>
	</outline>
</glyph>
<glyph name="to100" format="2">
	<advance width="50"/>
	<outline>
		<contour>
			<point x="-26.998" y="0.1" type="line"/>
			<point x="23.002" y="1000.1" type="line"/>
			<point x="26.998" y="999.9" type="line"/>
			<point x="-23.002" y="-0.1" type="line"/>
		</contour>
	</outline>
</glyph>
<glyph name="to103" format="2">
	<advance width="50"/>
	<outline>
		<contour>
			<point x="-26.998" y="0.097" type="line"/>
			<point x="23.002" y="1030.097" type="line"/>
			<point x="26.998" y="1029.903" type="line"/>
			<point x="-23.002" y="-0.097" type="line"/>
		</contour>
	</outline>
</glyph>
<glyph name="to104" format="2">
	<advance width="50"/>
	<outline>
		<contour>
			<point x="-27.497" y="0.12" type="line"/>
			<point x="22.503" y="1040.12" type="line"/>
			<point x="27.497" y="1039.88" type="line"/>
			<point x="-22.503" y="-0.12" type="line"/>
		</contour>
	</outline>
</glyph>
<glyph name="to105" format="2">
	<advance width="50"/>
	<outline>
		<contour>
			<point x="-27.497" y="0.119" type="line"/>
			<point x="22.503" y="1050.119" type="line"/>
			<point x="27.497" y="1049.881" type="line"/>
			<point x="-22.503" y="-0.119" type="line"/>
		</contour>
	</outline>
</glyph>
<glyph name="to106" format="2">
	<advance width="50"/>
	<outline>
		<contour>
			<point x="-26.998" y="0.094" type="line"/>
			<point x="23.002" y="1060.094" type="line"/>
			<point x="26.998" y="1059.906" type="line"/>
			<point x="-23.002" y="-0.094" type="line"/>
		</contour>
	</outline>
</glyph>
<glyph name="to11" format="2">
	<advance width="50"/>
	<outline>
		<contour>
			<point x="-26.821" y="0.828" type="line"/>
			<point x="23.179" y="110.828" type="line"/>
			<point x="26.821" y="109.172" type="line"/>
			<point x="-23.179" y="-0.828" type="line"/>
		</contour>
	</outline>
</glyph>
<glyph name="to110" format="2">
	<advance width="50"/>
	<outline>
		<contour>
			<point x="-27.497" y="0.114" type="line"/>
			<point x="22.503" y="1100.114" type="line"/>
			<point x="27.497" y="1099.886" type="line"/>
			<point x="-22.503" y="-0.114" type="line"/>
		</contour>
	</outline>
</glyph>
<glyph name="to113" format="2">
	<advance width="50"/>
	<outline>
		<contour>
			<point x="-27.498" y="0.111" type="line"/>
			<point x="22.502" y="1130.111" type="line"/>
			<point x="27.498" y="1129.889" type="line"/>
			<point x="-22.502" y="-0.111" type="line"/>
		</contour>
	</outline>
</glyph>
<glyph name="to118" format="2">
	<advance width="50"/>
	<outline>
		<contour>
			<point x="-27.498" y="0.106" type="line"/>
			<point x="22.502" y="1180.106" type="line"/>
			<point x="27.498" y="1179.894" type="line"/>
			<point x="-22.502" y="-0.106" type="line"/>
		</contour>
	</outline>
</glyph>
<glyph name="to119" format="2">
	<advance width="50"/>
	<outline>
		<contour>
			<point x="-26.998" y="0.084" type="line"/>
			<point x="23.002" y="1190.084" type="line"/>
			<point x="26.998" y="1189.916" type="line"/>
			<point x="-23.002" y="-0.084" type="line"/>
		</contour>
	</outline>
</glyph>
<glyph name="to12" format="2">
	<advance width="50"/>
	<outline>
		<contour>
			<point x="-26.846" y="0.769" type="line"/>
			<point x="23.154" y="120.769" type="line"/>
			<point x="26.846" y="119.231" type="line"/>
			<point x="-23.154" y="-0.769" type="line"/>
		</contour>
	</outline>
</glyph>
<glyph name="to121" format="2">
	<advance width="50"/>
	<outline>
		<contour>
			<point x="-26.998" y="0.083" type="line"/>
			<point x="23.002" y="1210.083" type="line"/>
			<point x="26.998" y="1209.917" type="line"/>
			<point x="-23.002" y="-0.083" type="line"/>
		</contour>
	</outline>
</glyph>
<glyph name="to123" format="2">
	<advance width="50"/>
	<outline>
		<contour>
			<point x="-27.498" y="0.102" type="line"/>
			<point x="22.502" y="1230.102" type="line"/>
			<point x="27.498" y="1229.898" type="line"/>
			<point x="-22.502" y="-0.102" type="line"/>
		</contour>
	</outline>
</glyph>
<glyph name="to125" format="2">
	<advance width="50"/>
	<outline>
		<contour>
			<point x="-26.998" y="0.08" type="line"/>
			<point x="23.002" y="1250.08" type="line"/>
			<point x="26.998" y="1249.92" type="line"/>
			<point x="-23.002" y="-0.08" type="line"/>
		</contour>
	</outline>
</glyph>
<glyph name="to126" format="2">
	<advance width="50"/>
	<outline>
		<contour>
			<point x="-26.998" y="0.079" type="line"/>
			<point x="23.002" y="1260.079" type="line"/>
			<point x="26.998" y="1259.921" type="line"/>
			<point x="-23.002" y="-0.079" type="line"/>
		</contour>
	</outline>
</glyph>
<glyph name="to14" format="2">
	<advance width="50"/>
	<outline>
		<contour>
			<point x="-26.883" y="0.673" type="line"/>
			<point x="23.117" y="140.673" type="line"/>
			<point x="26.883" y="139.327" type="line"/>
			<point x="-23.117" y="-0.673" type="line"/>
		</contour>
	</outline>
</glyph>
<glyph name="to16" format="2">
	<advance width="50"/>
	<outline>
		<contour>
			<point x="-26.909" y="0.597" type="line"/>
			<point x="23.091" y="160.597" type="line"/>
			<point x="26.909" y="159.403" type="line"/>
			<point x="-23.091" y="-0.597" type="line"/>
		</contour>
	</outline>
</glyph>
<glyph name="to17" format="2">
	<advance width="50"/>
	<outline>
		<contour>
			<point x="-26.919" y="0.564" type="line"/>
			<point x="23.081" y="170.564" type="line"/>
			<point x="26.919" y="169.436" type="line"/>
			<point x="-23.081" y="-0.564" type="line"/>
		</contour>
	</outline>
</glyph>
<glyph name="to2" format="2">
	<advance width="50"/>
	<outline>
		<contour>
			<point x="-25.743" y="1.857" type="line"/>
			<point x="24.257" y="21.857" type="line"/>
			<point x="25.743" y="18.143" type="line"/>
			<point x="-24.257" y="-1.857" type="line"/>
		</contour>
	</outline>
</glyph>
<glyph name="to20" format="2">
	<advance width="50"/>
	<outline>
		<contour>
			<point x="-26.94" y="0.485" type="line"/>
			<point x="23.06" y="200.485" type="line"/>
			<point x="26.94" y="199.515" type="line"/>
			<point x="-23.06" y="-0.485" type="line"/>
		</contour>
	</outline>
</glyph>
<glyph name="to21" format="2">
	<advance width="50"/>
	<outline>
		<contour>
			<point x="-26.946" y="0.463" type="line"/>
			<point x="23.054" y="210.463" type="line"/>
			<point x="26.946" y="209.537" type="line"/>
			<point x="-23.054" y="-0.463" type="line"/>
		</contour>
	</outline>
</glyph>
<glyph name="to22" format="2">
	<advance width="50"/>
	<outline>
		<contour>
			<point x="-26.95" y="0.443" type="line"/>
			<point x="23.05" y="220.443" type="line"/>
			<point x="26.95" y="219.557" type="line"/>
			<point x="-23.05" y="-0.443" type="line"/>
		</contour>
	</outline>
</glyph>
<glyph name="to23" format="2">
	<advance width="50"/>
	<outline>
		<contour>
			<point x="-26.954" y="0.425" type="line"/>
			<point x="23.046" y="230.425" type="line"/>
			<point x="26.954" y="229.575" type="line"/>
			<point x="-23.046" y="-0.425" type="line"/>
		</contour>
	</outline>
</glyph>
<glyph name="to24" format="2">
	<advance width="50"/>
	<outline>
		<contour>
			<point x="-26.958" y="0.408" type="line"/>
			<point x="23.042" y="240.408" type="line"/>
			<point x="26.958" y="239.592" type="line"/>
			<point x="-23.042" y="-0.408" type="line"/>
		</contour>
	</outline>
</glyph>
<glyph name="to26" format="2">
	<advance width="50"/>
	<outline>
		<contour>
			<point x="-26.964" y="0.378" type="line"/>
			<point x="23.036" y="260.378" type="line"/>
			<point x="26.964" y="259.622" type="line"/>
			<point x="-23.036" y="-0.378" type="line"/>
		</contour>
	</outline>
</glyph>
<glyph name="to27" format="2">
	<advance width="50"/>
	<outline>
		<contour>
			<point x="-26.967" y="0.364" type="line"/>
			<point x="23.033" y="270.364" type="line"/>
			<point x="26.967" y="269.636" type="line"/>
			<point x="-23.033" y="-0.364" type="line"/>
		</contour>
	</outline>
</glyph>
<glyph name="to28" format="2">
	<advance width="50"/>
	<outline>
		<contour>
			<point x="-27.461" y="0.439" type="line"/>
			<point x="22.539" y="280.439" type="line"/>
			<point x="27.461" y="279.561" type="line"/>
			<point x="-22.539" y="-0.439" type="line"/>
		</contour>
	</outline>
</glyph>
<glyph name="to3" format="2">
	<advance width="50"/>
	<outline>
		<contour>
			<point x="-26.029" y="1.715" type="line"/>
			<point x="23.971" y="31.715" type="line"/>
			<point x="26.029" y="28.285" type="line"/>
			<point x="-23.971" y="-1.715" type="line"/>
		</contour>
	</outline>
</glyph>
<glyph name="to30" format="2">
	<advance width="50"/>
	<outline>
		<contour>
			<point x="-27.466" y="0.411" type="line"/>
			<point x="22.534" y="300.411" type="line"/>
			<point x="27.466" y="299.589" type="line"/>
			<point x="-22.534" y="-0.411" type="line"/>
		</contour>
	</outline>
</glyph>
<glyph name="to31" format="2">
	<advance width="50"/>
	<outline>
		<contour>
			<point x="-26.974" y="0.318" type="line"/>
			<point x="23.026" y="310.318" type="line"/>
			<point x="26.974" y="309.682" type="line"/>
			<point x="-23.026" y="-0.318" type="line"/>
		</contour>
	</outline>
</glyph>
<glyph name="to32" format="2">
	<advance width="50"/>
	<outline>
		<contour>
			<point x="-26.976" y="0.309" type="line"/>
			<point x="23.024" y="320.309" type="line"/>
			<point x="26.976" y="319.691" type="line"/>
			<point x="-23.024" y="-0.309" type="line"/>
		</contour>
	</outline>
</glyph>
<glyph name="to35" format="2">
	<advance width="50"/>
	<outline>
		<contour>
			<point x="-27.475" y="0.354" type="line"/>
			<point x="22.525" y="350.354" type="line"/>
			<point x="27.475" y="349.646" type="line"/>
			<point x="-22.525" y="-0.354" type="line"/>
		</contour>
	</outline>
</glyph>
<glyph name="to36" format="2">
	<advance width="50"/>
	<outline>
		<contour>
			<point x="-26.981" y="0.275" type="line"/>
			<point x="23.019" y="360.275" type="line"/>
			<point x="26.981" y="359.725" type="line"/>
			<point x="-23.019" y="-0.275" type="line"/>
		</contour>
	</outline>
</glyph>
<glyph name="to37" format="2">
	<advance width="50"/>
	<outline>
		<contour>
			<point x="-27.477" y="0.335" type="line"/>
			<point x="22.523" y="370.335" type="line"/>
			<point x="27.477" y="369.665" type="line"/>
			<point x="-22.523" y="-0.335" type="line"/>
		</contour>
	</outline>
</glyph>
<glyph name="to38" format="2">
	<advance width="50"/>
	<outline>
		<contour>
			<point x="-27.479" y="0.326" type="line"/>
			<point x="22.521" y="380.326" type="line"/>
			<point x="27.479" y="379.674" type="line"/>
			<point x="-22.521" y="-0.326" type="line"/>
		</contour>
	</outline>
</glyph>
<glyph name="to39" format="2">
	<advance width="50"/>
	<outline>
		<contour>
			<point x="-27.48" y="0.318" type="line"/>
			<point x="22.52" y="390.318" type="line"/>
			<point x="27.48" y="389.682" type="line"/>
			<point x="-22.52" y="-0.318" type="line"/>
		</contour>
	</outline>
</glyph>
<glyph name="to4" format="2">
	<advance width="50"/>
	<outline>
		<contour>
			<point x="-26.249" y="1.562" type="line"/>
			<point x="23.751" y="41.562" type="line"/>
			<point x="26.249" y="38.438" type="line"/>
			<point x="-23.751" y="-1.562" type="line"/>
		</contour>
	</outline>
</glyph>
<glyph name="to43" format="2">
	<advance width="50"/>
	<outline>
		<contour>
			<point x="-27.483" y="0.289" type="line"/>
			<point x="22.517" y="430.289" type="line"/>
			<point x="27.483" y="429.711" type="line"/>
			<point x="-22.517" y="-0.289" type="line"/>
		</contour>
	</outline>
</glyph>
<glyph name="to44" format="2">
	<advance width="50"/>
	<outline>
		<contour>
			<point x="-26.987" y="0.226" type="line"/>
			<point x="23.013" y="440.226" type="line"/>
			<point x="26.987" y="439.774" type="line"/>
			<point x="-23.013" y="-0.226" type="line"/>
		</contour>
	</outline>
</glyph>
<glyph name="to45" format="2">
	<advance width="50"/>
	<outline>
		<contour>
			<point x="-26.988" y="0.221" type="line"/>
			<point x="23.012" y="450.221" type="line"/>
			<point x="26.988" y="449.779" type="line"/>
			<point x="-23.012" y="-0.221" type="line"/>
		</contour>
	</outline>
</glyph>
<glyph name="to49" format="2">
	<advance width="50"/>
	<outline>
		<contour>
			<point x="-27.487" y="0.254" type="line"/>
			<point x="22.513" y="490.254" type="line"/>
			<point x="27.487" y="489.746" type="line"/>
			<point x="-22.513" y="-0.254" type="line"/>
		</contour>
	</outline>
</glyph>
<glyph name="to5" format="2">
	<advance width="50"/>
	<outline>
		<contour>
			<point x="-26.414" y="1.414" type="line"/>
			<point x="23.586" y="51.414" type="line"/>
			<point x="26.414" y="48.586" type="line"/>
			<point x="-23.586" y="-1.414" type="line"/>
		</contour>
	</outline>
</glyph>
<glyph name="to50" format="2">
	<advance width="50"/>
	<outline>
		<contour>
			<point x="-26.99" y="0.199" type="line"/>
			<point x="23.01" y="500.199" type="line"/>
			<point x="26.99" y="499.801" type="line"/>
			<point x="-23.01" y="-0.199" type="line"/>
		</contour>
	</outline>
</glyph>
<glyph name="to52" format="2">
	<advance width="50"/>
	<outline>
		<contour>
			<point x="-26.991" y="0.191" type="line"/>
			<point x="23.009" y="520.191" type="line"/>
			<point x="26.991" y="519.809" type="line"/>
			<point x="-23.009" y="-0.191" type="line"/>
		</contour>
	</outline>
</glyph>
<glyph name="to53" format="2">
	<advance width="50"/>
	<outline>
		<contour>
			<point x="-26.991" y="0.188" type="line"/>
			<point x="23.009" y="530.188" type="line"/>
			<point x="26.991" y="529.812" type="line"/>
			<point x="-23.009" y="-0.188" type="line"/>
		</contour>
	</outline>
</glyph>
<glyph name="to54" format="2">
	<advance width="50"/>
	<outline>
		<contour>
			<point x="-26.991" y="0.184" type="line"/>
			<point x="23.009" y="540.184" type="line"/>
			<point x="26.991" y="539.816" type="line"/>
			<point x="-23.009" y="-0.184" type="line"/>
		</contour>
	</outline>
</glyph>
<glyph name="to55" format="2">
	<advance width="50"/>
	<outline>
		<contour>
			<point x="-26.992" y="0.181" type="line"/>
			<point x="23.008" y="550.181" type="line"/>
			<point x="26.992" y="549.819" type="line"/>
			<point x="-23.008" y="-0.181" type="line"/>
		</contour>
	</outline>
</glyph>
<glyph name="to57" format="2">
	<advance width="50"/>
	<outline>
		<contour>
			<point x="-26.992" y="0.175" type="line"/>
			<point x="23.008" y="570.175" type="line"/>
			<point x="26.992" y="569.825" type="line"/>
			<point x="-23.008" y="-0.175" type="line"/>
		</contour>
	</outline>
</glyph>
<glyph name="to6" format="2">
	<advance width="50"/>
	<outline>
		<contour>
			<point x="-26.536" y="1.28" type="line"/>
			<point x="23.464" y="61.28" type="line"/>
			<point x="26.536" y="58.72" type="line"/>
			<point x="-23.464" y="-1.28" type="line"/>
		</contour>
	</outline>
</glyph>
<glyph name="to62" format="2">
	<advance width="50"/>
	<outline>
		<contour>
			<point x="-26.994" y="0.161" type="line"/>
			<point x="23.006" y="620.161" type="line"/>
			<point x="26.994" y="619.839" type="line"/>
			<point x="-23.006" y="-0.161" type="line"/>
		</contour>
	</outline>
</glyph>
<glyph name="to63" format="2">
	<advance width="50"/>
	<outline>
		<contour>
			<point x="-26.994" y="0.158" type="line"/>
			<point x="23.006" y="630.158" type="line"/>
			<point x="26.994" y="629.842" type="line"/>
			<point x="-23.006" y="-0.158" type="line"/>
		</contour>
	</outline>
</glyph>
<glyph name="to66" format="2">
	<advance width="50"/>
	<outline>
		<contour>
			<point x="-27.493" y="0.189" type="line"/>
			<point x="22.507" y="660.189" type="line"/>
			<point x="27.493" y="659.811" type="line"/>
			<point x="-22.507" y="-0.189" type="line"/>
		</contour>
	</outline>
</glyph>
<glyph name="to67" format="2">
	<advance width="50"/>
	<outline>
		<contour>
			<point x="-26.994" y="0.149" type="line"/>
			<point x="23.006" y="670.149" type="line"/>
			<point x="26.994" y="669.851" type="line"/>
			<point x="-23.006" y="-0.149" type="line"/>
		</contour>
	</outline>
</glyph>
<glyph name="to68" format="2">
	<advance width="50"/>
	<outline>
		<contour>
			<point x="-27.493" y="0.183" type="line"/>
			<point x="22.507" y="680.183" type="line"/>
			<point x="27.493" y="679.817" type="line"/>
			<point x="-22.507" y="-0.183" type="line"/>
		</contour>
	</outline>
</glyph>
<glyph name="to69" format="2">
	<advance width="50"/>
	<outline>
		<contour>
			<point x="-27.493" y="0.181" type="line"/>
			<point x="22.507" y="690.181" type="line"/>
			<point x="27.493" y="689.819" type="line"/>
			<point x="-22.507" y="-0.181" type="line"/>
		</contour>
	</outline>
</glyph>
<glyph name="to7" format="2">
	<advance width="50"/>
	<outline>
		<contour>
			<point x="-27.034" y="1.453" type="line"/>
			<point x="22.966" y="71.453" type="line"/>
			<point x="27.034" y="68.547" type="line"/>
			<point x="-22.966" y="-1.453" type="line"/>
		</contour>
	</outline>
</glyph>
<glyph name="to70" format="2">
	<advance width="50"/>
	<outline>
		<contour>
			<point x="-26.995" y="0.142" type="line"/>
			<point x="23.005" y="700.142" type="line"/>
			<point x="26.995" y="699.858" type="line"/>
			<point x="-23.005" y="-0.142" type="line"/>
		</contour>
	</outline>
</glyph>
<glyph name="to73" format="2">
	<advance width="50"/>
	<outline>
		<contour>
			<point x="-26.995" y="0.137" type="line"/>
			<point x="23.005" y="730.137" type="line"/>
			<point x="26.995" y="729.863" type="line"/>
			<point x="-23.005" y="-0.137" type="line"/>
		</contour>
	</outline>
</glyph>
<glyph name="to74" format="2">
	<advance width="50"/>
	<outline>
		<contour>
			<point x="-26.995" y="0.135" type="line"/>
			<point x="23.005" y="740.135" type="line"/>
			<point x="26.995" y="739.865" type="line"/>
			<point x="-23.005" y="-0.135" type="line"/>
		</contour>
	</outline>
</glyph>
<glyph name="to76" format="2">
	<advance width="50"/>
	<outline>
		<contour>
			<point x="-27.495" y="0.164" type="line"/>
			<point x="22.505" y="760.164" type="line"/>
			<point x="27.495" y="759.836" type="line"/>
			<point x="-22.505" y="-0.164" type="line"/>
		</contour>
	</outline>
</glyph>
<glyph name="to77" format="2">
	<advance width="50"/>
	<outline>
		<contour>
			<point x="-26.996" y="0.13" type="line"/>
			<point x="23.004" y="770.13" type="line"/>
			<point x="26.996" y="769.87" type="line"/>
			<point x="-23.004" y="-0.13" type="line"/>
		</contour>
	</outline>
</glyph>
<glyph name="to78" format="2">
	<advance width="50"/>
	<outline>
		<contour>
			<point x="-26.996" y="0.128" type="line"/>
			<point x="23.004" y="780.128" type="line"/>
			<point x="26.996" y="779.872" type="line"/>
			<point x="-23.004" y="-0.128" type="line"/>
		</contour>
	</outline>
</glyph>
<glyph name="to8" format="2">
	<advance width="50"/>
	<outline>
		<contour>
			<point x="-27.12" y="1.325" type="line"/>
			<point x="22.88" y="81.325" type="line"/>
			<point x="27.12" y="78.675" type="line"/>
			<point x="-22.88" y="-1.325" type="line"/>
		</contour>
	</outline>
</glyph>
<glyph name="to80" format="2">
	<advance width="50"/>
	<outline>
		<contour>
			<point x="-26.996" y="0.125" type="line"/>
			<point x="23.004" y="800.125" type="line"/>
			<point x="26.996" y="799.875" type="line"/>
			<point x="-23.004" y="-0.125" type="line"/>
		</contour>
	</outline>
</glyph>
<glyph name="to81" format="2">
	<advance width="50"/>
	<outline>
		<contour>
			<point x="-26.996" y="0.123" type="line"/>
			<point x="23.004" y="810.123" type="line"/>
			<point x="26.996" y="809.877" type="line"/>
			<point x="-23.004" y="-0.123" type="line"/>
		</contour>
	</outline>
</glyph>
<glyph name="to82" format="2">
	<advance width="50"/>
	<outline>
		<contour>
			<point x="-27.495" y="0.152" type="line"/>
			<point x="22.505" y="820.152" type="line"/>
			<point x="27.495" y="819.848" type="line"/>
			<point x="-22.505" y="-0.152" type="line"/>
		</contour>
	</outline>
</glyph>
<glyph name="to84" format="2">
	<advance width="50"/>
	<outline>
		<contour>
			<point x="-26.996" y="0.119" type="line"/>
			<point x="23.004" y="840.119" type="line"/>
			<point x="26.996" y="839.881" type="line"/>
			<point x="-23.004" y="-0.119" type="line"/>
		</contour>
	</outline>
</glyph>
<glyph name="to86" format="2">
	<advance width="50"/>
	<outline>
		<contour>
			<point x="-27.496" y="0.145" type="line"/>
			<point x="22.504" y="860.145" type="line"/>
			<point x="27.496" y="859.855" type="line"/>
			<point x="-22.504" y="-0.145" type="line"/>
		</contour>
	</outline>
</glyph>
<glyph name="to89" format="2">
	<advance width="50"/>
	<outline>
		<contour>
			<point x="-26.997" y="0.112" type="line"/>
			<point x="23.003" y="890.112" type="line"/>
			<point x="26.997" y="889.888" type="line"/>
			<point x="-23.003" y="-0.112" type="line"/>
		</contour>
	</outline>
</glyph>
<glyph name="to9" format="2">
	<advance width="50"/>
	<outline>
		<contour>
			<point x="-26.748" y="0.971" type="line"/>
			<point x="23.252" y="90.971" type="line"/>
			<point x="26.748" y="89.029" type="line"/>
			<point x="-23.252" y="-0.971" type="line"/>
		</contour>
	</outline>
</glyph>
<glyph name="to90" format="2">
	<advance width="50"/>
	<outline>
		<contour>
			<point x="-27.496" y="0.139" type="line"/>
			<point x="22.504" y="900.139" type="line"/>
			<point x="27.496" y="899.861" type="line"/>
			<point x="-22.504" y="-0.139" type="line"/>
		</contour>
	</outline>
</glyph>
<glyph name="to91" format="2">
	<advance width="50"/>
	<outline>
		<contour>
			<point x="-26.997" y="0.11" type="line"/>
			<point x="23.003" y="910.11" type="line"/>
			<point x="26.997" y="909.89" type="line"/>
			<point x="-23.003" y="-0.11" type="line"/>
		</contour>
	</outline>
</glyph>
<glyph name="to92" format="2">
	<advance width="50"/>
	<outline>
		<contour>
			<point x="-26.997" y="0.109" type="line"/>
			<point x="23.003" y="920.109" type="line"/>
			<point x="26.997" y="919.891" type="line"/>
			<point x="-23.003" y="-0.109" type="line"/>
		</contour>
	</outline>
</glyph>
<glyph name="to93" format="2">
	<advance width="50"/>
	<outline>
		<contour>
			<point x="-26.997" y="0.107" type="line"/>
			<point x="23.003" y="930.107" type="line"/>
			<point x="26.997" y="929.893" type="line"/>
			<point x="-23.003" y="-0.107" type="line"/>
		</contour>
	</outline>
</glyph>
<glyph name="to95" format="2">
	<advance width="50"/>
	<outline>
		<contour>
			<point x="-26.997" y="0.105" type="line"/>
			<point x="23.003" y="950.105" type="line"/>
			<point x="26.997" y="949.895" type="line"/>
			<point x="-23.003" y="-0.105" type="line"/>
		</contour>
	</outline>
</glyph>
<glyph name="to96" format="2">
	<advance width="50"/>
	<outline>
		<contour>
			<point x="-26.997" y="0.104" type="line"/>
			<point x="23.003" y="960.104" type="line"/>
			<point x="26.997" y="959.896" type="line"/>
			<point x="-23.003" y="-0.104" type="line"/>
		</contour>
	</outline>
</glyph>
<glyph name="to97" format="2">
	<advance width="50"/>
	<outline>
		<contour>
			<point x="-26.997" y="0.103" type="line"/>
			<point x="23.003" y="970.103" type="line"/>
			<point x="26.997" y="969.897" type="line"/>
			<point x="-23.003" y="-0.103" type="line"/>
		</contour>
	</outline>
</glyph>
<glyph name="to98" format="2">
	<advance width="50"/>
	<outline>
		<contour>
			<point x="-26.997" y="0.102" type="line"/>
			<point x="23.003" y="980.102" type="line"/>
			<point x="26.997" y="979.898" type="line"/>
			<point x="-23.003" y="-0.102" type="line"/>
		</contour>
	</outline>
</glyph>
<glyph name="to99" format="2">
	<advance width="50"/>
	<outline>
		<contour>
			<point x="-26.997" y="0.101" type="line"/>
			<point x="23.003" y="990.101" type="line"/>
			<point x="26.997" y="989.899" type="line"/>
			<point x="-23.003" y="-0.101" type="line"/>
		</contour>
	</outline>
</glyph>
